G04*
G04 #@! TF.GenerationSoftware,Altium Limited,Altium Designer,19.1.6 (110)*
G04*
G04 Layer_Color=16711935*
%FSLAX43Y43*%
%MOMM*%
G71*
G01*
G75*
%ADD77C,2.403*%
%ADD78R,1.703X1.703*%
%ADD79C,1.703*%
%ADD80R,1.703X1.703*%
%ADD81C,1.703*%
%ADD82R,1.703X1.703*%
%ADD83C,3.203*%
%ADD84C,1.854*%
%ADD85R,1.854X1.854*%
%ADD86C,2.703*%
%ADD87P,1.844X8X22.5*%
%ADD88C,2.235*%
%ADD89C,2.203*%
%ADD90P,2.385X8X112.5*%
%ADD91C,1.473*%
%ADD92C,1.981*%
%ADD93R,1.981X1.981*%
%ADD94C,5.283*%
%ADD95C,1.603*%
%ADD125R,2.235X1.727*%
D77*
X24384Y92710D02*
D03*
X19384D02*
D03*
X47371Y6223D02*
D03*
X42371D02*
D03*
X57658D02*
D03*
X52658D02*
D03*
X6096Y24710D02*
D03*
Y29710D02*
D03*
Y14703D02*
D03*
Y19703D02*
D03*
Y9699D02*
D03*
Y4699D02*
D03*
X93726Y29562D02*
D03*
Y24562D02*
D03*
Y14558D02*
D03*
Y19558D02*
D03*
Y4550D02*
D03*
Y9550D02*
D03*
D78*
X96647Y66040D02*
D03*
X97536Y72898D02*
D03*
X3135Y75565D02*
D03*
D79*
X96647Y68580D02*
D03*
X94996Y75438D02*
D03*
X97536D02*
D03*
X94996Y72898D02*
D03*
X6096Y35179D02*
D03*
X8636D02*
D03*
X15113Y82169D02*
D03*
X20574Y2794D02*
D03*
X23114D02*
D03*
X25654D02*
D03*
X52451Y34798D02*
D03*
X49911D02*
D03*
X83340Y22500D02*
D03*
Y17500D02*
D03*
X66670Y22500D02*
D03*
Y17500D02*
D03*
X50000Y22500D02*
D03*
Y17500D02*
D03*
X33400Y22500D02*
D03*
Y17500D02*
D03*
X16660Y22500D02*
D03*
Y17500D02*
D03*
X3135Y85725D02*
D03*
Y83185D02*
D03*
Y80645D02*
D03*
Y78105D02*
D03*
D80*
X3556Y35179D02*
D03*
X28194Y2794D02*
D03*
X47371Y34798D02*
D03*
D81*
X16244Y28000D02*
D03*
D03*
X34600D02*
D03*
X51270D02*
D03*
X67940D02*
D03*
X84610D02*
D03*
D82*
X18784D02*
D03*
X13704D02*
D03*
X32060D02*
D03*
X48730D02*
D03*
X65400D02*
D03*
X82070D02*
D03*
D83*
X50038Y12827D02*
D03*
X92710Y91440D02*
D03*
X83820Y9144D02*
D03*
X10160Y91440D02*
D03*
X12700Y13843D02*
D03*
D84*
X39370Y72644D02*
D03*
Y65024D02*
D03*
Y75184D02*
D03*
Y70104D02*
D03*
Y67564D02*
D03*
X31750D02*
D03*
Y65024D02*
D03*
Y70104D02*
D03*
Y72644D02*
D03*
D85*
Y75184D02*
D03*
D86*
X43652Y79665D02*
D03*
X47244Y76073D02*
D03*
D87*
X20193Y82169D02*
D03*
D88*
X80162Y56286D02*
D03*
X60137Y56261D02*
D03*
D89*
X86515Y17854D02*
D03*
X80165D02*
D03*
X69845D02*
D03*
X63495D02*
D03*
X53175D02*
D03*
X46825D02*
D03*
X36575D02*
D03*
X30225D02*
D03*
X19835D02*
D03*
X13485D02*
D03*
D90*
X86515Y22299D02*
D03*
X80165D02*
D03*
X69845D02*
D03*
X63495D02*
D03*
X53175D02*
D03*
X46825D02*
D03*
X36575D02*
D03*
X30225D02*
D03*
X19835D02*
D03*
X13485D02*
D03*
D91*
X86106Y86273D02*
D03*
X83606Y88773D02*
D03*
X86106Y91273D02*
D03*
D92*
X83668Y96774D02*
D03*
X50648D02*
D03*
X53188Y96774D02*
D03*
X55728D02*
D03*
X58268Y96774D02*
D03*
X60808D02*
D03*
X63348D02*
D03*
X65888D02*
D03*
X68428D02*
D03*
X70968D02*
D03*
X73508D02*
D03*
X76048D02*
D03*
X78588D02*
D03*
X81128D02*
D03*
X86208Y96774D02*
D03*
D93*
X88748Y96774D02*
D03*
D94*
X3241Y41774D02*
D03*
X96241Y41774D02*
D03*
X3241Y96774D02*
D03*
X96241Y96774D02*
D03*
D95*
X79248Y68199D02*
D03*
X76708D02*
D03*
D125*
X77978Y77724D02*
D03*
M02*
