G04*
G04 #@! TF.GenerationSoftware,Altium Limited,Altium Designer,19.1.6 (110)*
G04*
G04 Layer_Physical_Order=2*
G04 Layer_Color=16711680*
%FSLAX43Y43*%
%MOMM*%
G71*
G01*
G75*
%ADD96C,0.508*%
%ADD97C,0.406*%
%ADD98C,0.762*%
%ADD99C,1.016*%
%ADD101C,2.200*%
%ADD102R,1.500X1.500*%
%ADD103C,1.500*%
%ADD104R,1.500X1.500*%
%ADD105C,1.500*%
%ADD106R,1.500X1.500*%
%ADD107C,3.000*%
%ADD108C,1.651*%
%ADD109R,1.651X1.651*%
%ADD110C,2.500*%
%ADD111P,1.624X8X22.5*%
%ADD112C,2.032*%
%ADD113C,2.000*%
%ADD114P,2.165X8X112.5*%
%ADD115C,1.270*%
%ADD116C,1.778*%
%ADD117R,1.778X1.778*%
%ADD118C,5.080*%
%ADD119C,1.400*%
%ADD120C,1.016*%
%ADD121R,2.032X1.524*%
%ADD122R,0.048X5.976*%
%ADD123R,3.548X2.152*%
%ADD124R,3.500X6.000*%
G36*
X99456Y544D02*
X94058D01*
X94006Y671D01*
X96578Y3243D01*
X96713Y3445D01*
X96761Y3683D01*
Y7137D01*
X96713Y7375D01*
X96578Y7577D01*
X95138Y9017D01*
X95211Y9255D01*
X95240Y9550D01*
X95211Y9846D01*
X95124Y10130D01*
X94985Y10391D01*
X94796Y10621D01*
X94567Y10809D01*
X94305Y10949D01*
X94021Y11035D01*
X93726Y11064D01*
X93431Y11035D01*
X93147Y10949D01*
X92885Y10809D01*
X92656Y10621D01*
X92467Y10391D01*
X92328Y10130D01*
X92241Y9846D01*
X92212Y9550D01*
X92241Y9255D01*
X92328Y8971D01*
X92467Y8709D01*
X92656Y8480D01*
X92885Y8292D01*
X93147Y8152D01*
X93431Y8066D01*
X93726Y8037D01*
X94021Y8066D01*
X94259Y8138D01*
X95517Y6880D01*
Y3940D01*
X93215Y1638D01*
X91858D01*
X91809Y1755D01*
X93193Y3138D01*
X93431Y3066D01*
X93726Y3037D01*
X94021Y3066D01*
X94305Y3152D01*
X94567Y3292D01*
X94796Y3480D01*
X94985Y3709D01*
X95124Y3971D01*
X95211Y4255D01*
X95240Y4550D01*
X95211Y4846D01*
X95124Y5130D01*
X94985Y5391D01*
X94796Y5621D01*
X94567Y5809D01*
X94305Y5949D01*
X94021Y6035D01*
X93726Y6064D01*
X93431Y6035D01*
X93147Y5949D01*
X92885Y5809D01*
X92656Y5621D01*
X92467Y5391D01*
X92328Y5130D01*
X92241Y4846D01*
X92212Y4550D01*
X92241Y4255D01*
X92314Y4017D01*
X90950Y2654D01*
X32896D01*
X30412Y5139D01*
X30210Y5273D01*
X29972Y5321D01*
X23876D01*
X23638Y5273D01*
X23437Y5139D01*
X22674Y4377D01*
X22540Y4175D01*
X22492Y3937D01*
Y3775D01*
X22289Y3619D01*
X22104Y3377D01*
X21987Y3096D01*
X21948Y2794D01*
X21987Y2492D01*
X22104Y2211D01*
X22289Y1969D01*
X22531Y1784D01*
X22578Y1765D01*
X22552Y1638D01*
X21593D01*
X21389Y1842D01*
X21398Y1968D01*
X21399Y1969D01*
X21584Y2211D01*
X21701Y2492D01*
X21740Y2794D01*
X21701Y3096D01*
X21584Y3377D01*
X21399Y3619D01*
X21157Y3804D01*
X20876Y3921D01*
X20574Y3960D01*
X20272Y3921D01*
X19991Y3804D01*
X19749Y3619D01*
X19564Y3377D01*
X19447Y3096D01*
X19408Y2794D01*
X19447Y2492D01*
X19564Y2211D01*
X19749Y1969D01*
X19952Y1813D01*
Y1778D01*
X20000Y1540D01*
X20135Y1339D01*
X20802Y671D01*
X20750Y544D01*
X3463D01*
X3463Y34023D01*
X4712D01*
Y36335D01*
X3463D01*
Y38836D01*
X3703Y38855D01*
X4154Y38963D01*
X4582Y39141D01*
X4978Y39383D01*
X5330Y39684D01*
X5632Y40037D01*
X5874Y40432D01*
X6051Y40861D01*
X6160Y41312D01*
X6196Y41774D01*
X6160Y42236D01*
X6051Y42687D01*
X5874Y43116D01*
X5632Y43511D01*
X5330Y43864D01*
X5224Y43954D01*
X5219Y44081D01*
X7874Y46736D01*
X13433D01*
X13482Y46619D01*
X5656Y38793D01*
X5522Y38592D01*
X5474Y38354D01*
Y36160D01*
X5271Y36004D01*
X5086Y35762D01*
X4969Y35481D01*
X4930Y35179D01*
X4969Y34877D01*
X5086Y34596D01*
X5271Y34354D01*
X5513Y34169D01*
X5794Y34052D01*
X6096Y34013D01*
X6398Y34052D01*
X6679Y34169D01*
X6921Y34354D01*
X7106Y34596D01*
X7223Y34877D01*
X7262Y35179D01*
X7223Y35481D01*
X7106Y35762D01*
X6921Y36004D01*
X6718Y36160D01*
Y38097D01*
X14254Y45633D01*
X14364Y45564D01*
Y43856D01*
X14334Y43832D01*
X14187Y43641D01*
X14095Y43419D01*
X14064Y43180D01*
X14095Y42941D01*
X14187Y42719D01*
X14334Y42528D01*
X14525Y42381D01*
X14747Y42289D01*
X14986Y42258D01*
X15225Y42289D01*
X15447Y42381D01*
X15638Y42528D01*
X15785Y42719D01*
X15877Y42941D01*
X15908Y43180D01*
X15877Y43419D01*
X15785Y43641D01*
X15638Y43832D01*
X15608Y43856D01*
Y45336D01*
X17008Y46736D01*
X22619D01*
Y42814D01*
X22502Y42766D01*
X21745Y43523D01*
X21750Y43561D01*
X21719Y43800D01*
X21627Y44022D01*
X21480Y44213D01*
X21289Y44360D01*
X21067Y44452D01*
X20828Y44483D01*
X20589Y44452D01*
X20367Y44360D01*
X20176Y44213D01*
X20029Y44022D01*
X19937Y43800D01*
X19906Y43561D01*
X19937Y43322D01*
X20029Y43100D01*
X20176Y42909D01*
X20367Y42762D01*
X20589Y42670D01*
X20828Y42639D01*
X20866Y42644D01*
X21730Y41780D01*
Y17146D01*
X21510Y17055D01*
X21319Y16908D01*
X21172Y16717D01*
X21080Y16495D01*
X21049Y16256D01*
X21067Y16116D01*
X20961Y15989D01*
X17529D01*
X17282Y16236D01*
Y16519D01*
X17485Y16675D01*
X17670Y16917D01*
X17787Y17198D01*
X17826Y17500D01*
X17787Y17802D01*
X17670Y18083D01*
X17485Y18325D01*
X17243Y18510D01*
X16962Y18627D01*
X16660Y18666D01*
X16358Y18627D01*
X16077Y18510D01*
X15835Y18325D01*
X15650Y18083D01*
X15533Y17802D01*
X15494Y17500D01*
X15533Y17198D01*
X15650Y16917D01*
X15835Y16675D01*
X16038Y16519D01*
Y15979D01*
X16086Y15741D01*
X16221Y15540D01*
X16833Y14927D01*
X17034Y14793D01*
X17272Y14745D01*
X49235D01*
X49259Y14715D01*
X49450Y14568D01*
X49672Y14476D01*
X49911Y14445D01*
X50150Y14476D01*
X50372Y14568D01*
X50563Y14715D01*
X50710Y14906D01*
X50802Y15128D01*
X50833Y15367D01*
X50802Y15606D01*
X50710Y15828D01*
X50563Y16019D01*
X50533Y16043D01*
Y16469D01*
X50583Y16490D01*
X50825Y16675D01*
X51010Y16917D01*
X51127Y17198D01*
X51166Y17500D01*
X51127Y17802D01*
X51010Y18083D01*
X50825Y18325D01*
X50583Y18510D01*
X50302Y18627D01*
X50000Y18666D01*
X49746Y18633D01*
X49327Y19052D01*
Y21414D01*
X49454Y21475D01*
X49698Y21373D01*
X50000Y21334D01*
X50302Y21373D01*
X50583Y21490D01*
X50825Y21675D01*
X51010Y21917D01*
X51127Y22198D01*
X51166Y22500D01*
X51127Y22802D01*
X51010Y23083D01*
X50825Y23325D01*
X50622Y23481D01*
Y26473D01*
X51016Y26867D01*
X51270Y26834D01*
X51572Y26873D01*
X51853Y26990D01*
X52095Y27175D01*
X52280Y27417D01*
X52397Y27698D01*
X52436Y28000D01*
X52397Y28302D01*
X52280Y28583D01*
X52095Y28825D01*
X51853Y29010D01*
X51572Y29127D01*
X51270Y29166D01*
X50968Y29127D01*
X50687Y29010D01*
X50445Y28825D01*
X50260Y28583D01*
X50143Y28302D01*
X50104Y28000D01*
X50137Y27746D01*
X50004Y27613D01*
X49886Y27661D01*
Y29156D01*
X47574D01*
Y26844D01*
X48083D01*
Y23316D01*
X47966Y23267D01*
X47528Y23705D01*
X46122D01*
X45419Y23002D01*
Y21596D01*
X46122Y20892D01*
X47528D01*
X47966Y21330D01*
X48083Y21282D01*
Y18795D01*
X48100Y18711D01*
X47981Y18657D01*
X47828Y18857D01*
X47534Y19082D01*
X47192Y19224D01*
X46825Y19272D01*
X46458Y19224D01*
X46116Y19082D01*
X45822Y18857D01*
X45597Y18563D01*
X45455Y18221D01*
X45406Y17854D01*
X45455Y17487D01*
X45597Y17144D01*
X45822Y16851D01*
X46116Y16625D01*
X46458Y16483D01*
X46825Y16435D01*
X47192Y16483D01*
X47534Y16625D01*
X47828Y16851D01*
X48053Y17144D01*
X48195Y17487D01*
X48244Y17854D01*
X48195Y18221D01*
X48177Y18264D01*
X48285Y18336D01*
X48867Y17754D01*
X48834Y17500D01*
X48873Y17198D01*
X48990Y16917D01*
X49175Y16675D01*
X49289Y16588D01*
Y16043D01*
X49259Y16019D01*
X49235Y15989D01*
X34022D01*
Y16519D01*
X34225Y16675D01*
X34410Y16917D01*
X34527Y17198D01*
X34566Y17500D01*
X34527Y17802D01*
X34410Y18083D01*
X34225Y18325D01*
X33983Y18510D01*
X33702Y18627D01*
X33400Y18666D01*
X33146Y18633D01*
X32682Y19097D01*
Y21450D01*
X32795Y21506D01*
X32817Y21490D01*
X33098Y21373D01*
X33400Y21334D01*
X33702Y21373D01*
X33983Y21490D01*
X34225Y21675D01*
X34410Y21917D01*
X34527Y22198D01*
X34566Y22500D01*
X34527Y22802D01*
X34410Y23083D01*
X34225Y23325D01*
X34022Y23481D01*
Y26543D01*
X34346Y26867D01*
X34600Y26834D01*
X34902Y26873D01*
X35183Y26990D01*
X35425Y27175D01*
X35610Y27417D01*
X35727Y27698D01*
X35766Y28000D01*
X35727Y28302D01*
X35610Y28583D01*
X35425Y28825D01*
X35183Y29010D01*
X34902Y29127D01*
X34600Y29166D01*
X34298Y29127D01*
X34017Y29010D01*
X33775Y28825D01*
X33590Y28583D01*
X33473Y28302D01*
X33434Y28000D01*
X33467Y27746D01*
X33334Y27613D01*
X33216Y27661D01*
Y29156D01*
X32223D01*
X32174Y29274D01*
X43874Y40973D01*
X44008Y41175D01*
X44056Y41413D01*
Y69939D01*
X44008Y70177D01*
X43874Y70379D01*
X43824Y70428D01*
X43848Y70612D01*
X43817Y70851D01*
X43725Y71073D01*
X43578Y71264D01*
X43387Y71411D01*
X43165Y71503D01*
X42926Y71534D01*
X42687Y71503D01*
X42465Y71411D01*
X42274Y71264D01*
X42127Y71073D01*
X42035Y70851D01*
X42004Y70612D01*
X42035Y70373D01*
X42127Y70151D01*
X42274Y69960D01*
X42465Y69813D01*
X42687Y69721D01*
X42786Y69708D01*
X42812Y69682D01*
Y69463D01*
X42685Y69357D01*
X42545Y69375D01*
X42306Y69344D01*
X42084Y69252D01*
X41893Y69105D01*
X41746Y68914D01*
X41654Y68692D01*
X41623Y68453D01*
X41654Y68214D01*
X41746Y67992D01*
X41893Y67801D01*
X41923Y67777D01*
Y48402D01*
X41796Y48324D01*
X41641Y48389D01*
X41498Y48408D01*
X25781Y64125D01*
Y68960D01*
X25818Y69008D01*
X25910Y69230D01*
X25941Y69469D01*
X25910Y69708D01*
X25851Y69850D01*
X25936Y69977D01*
X30147Y69977D01*
X30275Y75020D01*
X29903D01*
X29862Y75074D01*
X29832Y75098D01*
Y76451D01*
X29848Y76467D01*
X30412D01*
X30518Y76416D01*
X30518Y76340D01*
Y73952D01*
X31357D01*
X31382Y73825D01*
X31129Y73720D01*
X30871Y73523D01*
X30674Y73265D01*
X30550Y72966D01*
X30507Y72644D01*
X30550Y72322D01*
X30674Y72023D01*
X30871Y71765D01*
X31129Y71568D01*
X31428Y71444D01*
X31472Y71438D01*
Y71310D01*
X31428Y71304D01*
X31129Y71180D01*
X30871Y70983D01*
X30674Y70725D01*
X30550Y70426D01*
X30507Y70104D01*
X30550Y69782D01*
X30674Y69483D01*
X30871Y69225D01*
X31129Y69028D01*
X31428Y68904D01*
X31472Y68898D01*
Y68770D01*
X31428Y68764D01*
X31129Y68640D01*
X30871Y68443D01*
X30674Y68185D01*
X30550Y67886D01*
X30507Y67564D01*
X30550Y67242D01*
X30674Y66943D01*
X30871Y66685D01*
X31129Y66488D01*
X31428Y66364D01*
X31472Y66358D01*
Y66230D01*
X31428Y66224D01*
X31129Y66100D01*
X30871Y65903D01*
X30674Y65645D01*
X30550Y65346D01*
X30507Y65024D01*
X30550Y64702D01*
X30674Y64403D01*
X30871Y64145D01*
X31129Y63948D01*
X31428Y63824D01*
X31750Y63781D01*
X32072Y63824D01*
X32371Y63948D01*
X32629Y64145D01*
X32826Y64403D01*
X32950Y64702D01*
X32993Y65024D01*
X32950Y65346D01*
X32826Y65645D01*
X32629Y65903D01*
X32371Y66100D01*
X32072Y66224D01*
X32028Y66230D01*
Y66358D01*
X32072Y66364D01*
X32371Y66488D01*
X32629Y66685D01*
X32826Y66943D01*
X32950Y67242D01*
X32993Y67564D01*
X32950Y67886D01*
X32826Y68185D01*
X32629Y68443D01*
X32371Y68640D01*
X32072Y68764D01*
X32028Y68770D01*
Y68898D01*
X32072Y68904D01*
X32371Y69028D01*
X32629Y69225D01*
X32826Y69483D01*
X32950Y69782D01*
X32993Y70104D01*
X32950Y70426D01*
X32826Y70725D01*
X32629Y70983D01*
X32371Y71180D01*
X32072Y71304D01*
X32028Y71310D01*
Y71438D01*
X32072Y71444D01*
X32371Y71568D01*
X32629Y71765D01*
X32826Y72022D01*
X38294D01*
X38491Y71765D01*
X38749Y71568D01*
X39048Y71444D01*
X39092Y71438D01*
Y71310D01*
X39048Y71304D01*
X38749Y71180D01*
X38491Y70983D01*
X38294Y70725D01*
X38170Y70426D01*
X38127Y70104D01*
X38170Y69782D01*
X38294Y69483D01*
X38491Y69225D01*
X38749Y69028D01*
X39048Y68904D01*
X39092Y68898D01*
Y68770D01*
X39048Y68764D01*
X38749Y68640D01*
X38491Y68443D01*
X38294Y68185D01*
X38170Y67886D01*
X38127Y67564D01*
X38170Y67242D01*
X38294Y66943D01*
X38491Y66685D01*
X38749Y66488D01*
X39048Y66364D01*
X39092Y66358D01*
Y66230D01*
X39048Y66224D01*
X38749Y66100D01*
X38491Y65903D01*
X38294Y65645D01*
X38170Y65346D01*
X38127Y65024D01*
X38170Y64702D01*
X38294Y64403D01*
X38491Y64145D01*
X38749Y63948D01*
X39048Y63824D01*
X39370Y63781D01*
X39692Y63824D01*
X39991Y63948D01*
X40249Y64145D01*
X40446Y64403D01*
X40570Y64702D01*
X40613Y65024D01*
X40570Y65346D01*
X40446Y65645D01*
X40249Y65903D01*
X39991Y66100D01*
X39692Y66224D01*
X39648Y66230D01*
Y66358D01*
X39692Y66364D01*
X39991Y66488D01*
X40249Y66685D01*
X40446Y66943D01*
X40570Y67242D01*
X40613Y67564D01*
X40570Y67886D01*
X40446Y68185D01*
X40249Y68443D01*
X39991Y68640D01*
X39692Y68764D01*
X39648Y68770D01*
Y68898D01*
X39692Y68904D01*
X39991Y69028D01*
X40249Y69225D01*
X40446Y69483D01*
X40570Y69782D01*
X40613Y70104D01*
X40570Y70426D01*
X40446Y70725D01*
X40249Y70983D01*
X39991Y71180D01*
X39692Y71304D01*
X39648Y71310D01*
Y71438D01*
X39692Y71444D01*
X39991Y71568D01*
X40249Y71765D01*
X40446Y72022D01*
X67180D01*
X73602Y65601D01*
X73803Y65466D01*
X74041Y65418D01*
X95491D01*
Y64884D01*
X97803D01*
Y67196D01*
X95491D01*
Y66662D01*
X74298D01*
X67877Y73084D01*
X67675Y73218D01*
X67437Y73266D01*
X40446D01*
X40249Y73523D01*
X39991Y73720D01*
X39692Y73844D01*
X39370Y73887D01*
X39048Y73844D01*
X38749Y73720D01*
X38491Y73523D01*
X38294Y73266D01*
X32826D01*
X32629Y73523D01*
X32371Y73720D01*
X32118Y73825D01*
X32143Y73952D01*
X32982D01*
Y76340D01*
X32982Y76416D01*
X33088Y76467D01*
X44831D01*
X45069Y76515D01*
X45271Y76649D01*
X46226Y77605D01*
X46309Y77595D01*
X46334Y77465D01*
X46319Y77457D01*
X46067Y77250D01*
X45860Y76998D01*
X45706Y76710D01*
X45612Y76398D01*
X45580Y76073D01*
X45612Y75748D01*
X45706Y75436D01*
X45860Y75148D01*
X46067Y74896D01*
X46319Y74689D01*
X46607Y74535D01*
X46919Y74441D01*
X47244Y74409D01*
X47569Y74441D01*
X47881Y74535D01*
X48169Y74689D01*
X48421Y74896D01*
X48628Y75148D01*
X48782Y75436D01*
X48876Y75748D01*
X48908Y76073D01*
X48876Y76398D01*
X48782Y76710D01*
X48628Y76998D01*
X48421Y77250D01*
X48169Y77457D01*
X48112Y77487D01*
X48143Y77610D01*
X51013D01*
X51037Y77580D01*
X51228Y77433D01*
X51450Y77341D01*
X51689Y77310D01*
X51928Y77341D01*
X52150Y77433D01*
X52341Y77580D01*
X52488Y77771D01*
X52580Y77993D01*
X52611Y78232D01*
X52580Y78471D01*
X52488Y78693D01*
X52341Y78884D01*
X52150Y79031D01*
X51928Y79123D01*
X51689Y79154D01*
X51450Y79123D01*
X51228Y79031D01*
X51037Y78884D01*
X51013Y78854D01*
X45974D01*
X45736Y78806D01*
X45535Y78672D01*
X44574Y77711D01*
X40782D01*
X40704Y77838D01*
X40769Y77993D01*
X40800Y78232D01*
X40795Y78270D01*
X41906Y79381D01*
X42025Y79321D01*
X42114Y79028D01*
X42268Y78740D01*
X42475Y78488D01*
X42727Y78281D01*
X43015Y78127D01*
X43327Y78033D01*
X43652Y78001D01*
X43977Y78033D01*
X44289Y78127D01*
X44577Y78281D01*
X44829Y78488D01*
X45036Y78740D01*
X45190Y79028D01*
X45284Y79340D01*
X45316Y79665D01*
X45284Y79990D01*
X45190Y80302D01*
X45036Y80590D01*
X44829Y80842D01*
X44577Y81049D01*
X44289Y81203D01*
X43996Y81292D01*
X43936Y81411D01*
X44326Y81801D01*
X46441D01*
X46465Y81771D01*
X46656Y81624D01*
X46878Y81532D01*
X47117Y81501D01*
X47356Y81532D01*
X47578Y81624D01*
X47769Y81771D01*
X47916Y81962D01*
X48008Y82184D01*
X48039Y82423D01*
X48008Y82662D01*
X47916Y82884D01*
X47769Y83075D01*
X47578Y83222D01*
X47356Y83314D01*
X47117Y83345D01*
X46878Y83314D01*
X46656Y83222D01*
X46465Y83075D01*
X46441Y83045D01*
X44069D01*
X43831Y82997D01*
X43630Y82863D01*
X39916Y79149D01*
X39878Y79154D01*
X39639Y79123D01*
X39417Y79031D01*
X39226Y78884D01*
X39079Y78693D01*
X38987Y78471D01*
X38956Y78232D01*
X38987Y77993D01*
X39052Y77838D01*
X38974Y77711D01*
X29591D01*
X29353Y77663D01*
X29152Y77529D01*
X28771Y77147D01*
X28636Y76946D01*
X28588Y76708D01*
Y75118D01*
X28493Y75020D01*
X25201D01*
X25153Y75138D01*
X25617Y75602D01*
X25617Y75602D01*
X25723Y75740D01*
X25789Y75901D01*
X25812Y76073D01*
Y80242D01*
X29232Y83662D01*
X66930D01*
X67103Y83529D01*
X67325Y83437D01*
X67564Y83406D01*
X67803Y83437D01*
X68025Y83529D01*
X68198Y83662D01*
X78337D01*
X83350Y78649D01*
X83603Y78396D01*
X83603Y78396D01*
X83741Y78290D01*
X83902Y78224D01*
X84074Y78201D01*
X85980D01*
X86153Y78068D01*
X86375Y77976D01*
X86614Y77945D01*
X86853Y77976D01*
X87075Y78068D01*
X87266Y78215D01*
X87413Y78406D01*
X87505Y78628D01*
X87536Y78867D01*
X87505Y79106D01*
X87413Y79328D01*
X87266Y79519D01*
X87075Y79666D01*
X86853Y79758D01*
X86614Y79789D01*
X86375Y79758D01*
X86153Y79666D01*
X85980Y79533D01*
X84350D01*
X83894Y79989D01*
X83966Y80096D01*
X84026Y80072D01*
X84265Y80040D01*
X84503Y80072D01*
X84726Y80164D01*
X84917Y80310D01*
X85063Y80501D01*
X85155Y80724D01*
X85187Y80963D01*
X85155Y81201D01*
X85063Y81424D01*
X84917Y81615D01*
X84726Y81761D01*
X84503Y81853D01*
X84287Y81882D01*
X80100Y86069D01*
X79962Y86175D01*
X79801Y86241D01*
X79629Y86264D01*
X79629Y86264D01*
X69595D01*
X69422Y86397D01*
X69285Y86454D01*
X69310Y86581D01*
X80898D01*
X92820Y74659D01*
X93011Y74512D01*
X93233Y74420D01*
X93472Y74389D01*
X93980D01*
X94219Y74420D01*
X94226Y74423D01*
X94424D01*
X94694Y74311D01*
X94996Y74272D01*
X95298Y74311D01*
X95579Y74428D01*
X95694Y74516D01*
X96838D01*
X96953Y74428D01*
X97234Y74311D01*
X97536Y74272D01*
X97838Y74311D01*
X98119Y74428D01*
X98361Y74613D01*
X98546Y74855D01*
X98663Y75136D01*
X98702Y75438D01*
X98663Y75740D01*
X98546Y76021D01*
X98361Y76263D01*
X98119Y76448D01*
X97838Y76565D01*
X97536Y76604D01*
X97234Y76565D01*
X96953Y76448D01*
X96838Y76360D01*
X95694D01*
X95579Y76448D01*
X95298Y76565D01*
X94996Y76604D01*
X94694Y76565D01*
X94413Y76448D01*
X94178Y76268D01*
X94014D01*
X93842Y76245D01*
X81932Y88155D01*
X81741Y88302D01*
X81519Y88394D01*
X81280Y88425D01*
X25527D01*
X25288Y88394D01*
X25066Y88302D01*
X24875Y88155D01*
X24875Y88155D01*
X20045Y83325D01*
X19615D01*
X19037Y82747D01*
Y81591D01*
X19615Y81013D01*
X20771D01*
X21349Y81591D01*
Y82021D01*
X25909Y86581D01*
X68612D01*
X68637Y86454D01*
X68500Y86397D01*
X68327Y86264D01*
X28702D01*
X28530Y86241D01*
X28369Y86175D01*
X28231Y86069D01*
X28231Y86069D01*
X23659Y81497D01*
X23553Y81359D01*
X23487Y81198D01*
X23464Y81026D01*
X23464Y81026D01*
Y77977D01*
X23331Y77804D01*
X23239Y77582D01*
X23208Y77343D01*
X23213Y77305D01*
X22294Y76385D01*
X22159Y76184D01*
X22111Y75946D01*
Y75020D01*
X16029D01*
X4885Y86164D01*
X4683Y86299D01*
X4445Y86347D01*
X4116D01*
X3960Y86550D01*
X3718Y86735D01*
X3463Y86841D01*
X3463Y93836D01*
X3703Y93855D01*
X4154Y93963D01*
X4582Y94141D01*
X4978Y94383D01*
X5330Y94684D01*
X5632Y95037D01*
X5874Y95432D01*
X6051Y95861D01*
X6160Y96312D01*
X6196Y96774D01*
X6160Y97236D01*
X6051Y97687D01*
X5874Y98116D01*
X5632Y98511D01*
X5330Y98864D01*
X4978Y99165D01*
X4710Y99329D01*
X4746Y99456D01*
X94735D01*
X94771Y99329D01*
X94503Y99165D01*
X94151Y98864D01*
X93850Y98511D01*
X93607Y98116D01*
X93430Y97687D01*
X93321Y97236D01*
X93285Y96774D01*
X93321Y96312D01*
X93430Y95861D01*
X93607Y95432D01*
X93850Y95037D01*
X94151Y94684D01*
X94503Y94383D01*
X94899Y94141D01*
X95327Y93963D01*
X95778Y93855D01*
X96241Y93819D01*
X96703Y93855D01*
X97154Y93963D01*
X97582Y94141D01*
X97978Y94383D01*
X98330Y94684D01*
X98632Y95037D01*
X98874Y95432D01*
X99051Y95861D01*
X99160Y96312D01*
X99196Y96774D01*
X99160Y97236D01*
X99051Y97687D01*
X98874Y98116D01*
X98632Y98511D01*
X98330Y98864D01*
X97978Y99165D01*
X97710Y99329D01*
X97746Y99456D01*
X99456D01*
Y544D01*
D02*
G37*
G36*
X83345Y80940D02*
X83374Y80724D01*
X83398Y80664D01*
X83291Y80592D01*
X79084Y84799D01*
X79076Y84805D01*
X79119Y84932D01*
X79353D01*
X83345Y80940D01*
D02*
G37*
G36*
X14153Y75138D02*
X14105Y75020D01*
X9552Y75020D01*
X8568Y76005D01*
X8366Y76139D01*
X8128Y76187D01*
X4292D01*
Y76721D01*
X3463D01*
Y76989D01*
X3718Y77095D01*
X3960Y77280D01*
X4145Y77522D01*
X4262Y77803D01*
X4302Y78105D01*
X4262Y78407D01*
X4145Y78688D01*
X3960Y78930D01*
X3718Y79115D01*
X3463Y79221D01*
Y79529D01*
X3718Y79635D01*
X3960Y79820D01*
X4145Y80062D01*
X4262Y80343D01*
X4302Y80645D01*
X4262Y80947D01*
X4145Y81228D01*
X3960Y81470D01*
X3718Y81655D01*
X3463Y81761D01*
Y82234D01*
X3642Y82308D01*
X3851Y82469D01*
X4012Y82679D01*
X4113Y82923D01*
X4131Y83058D01*
X3135D01*
Y83312D01*
X4131D01*
X4113Y83447D01*
X4012Y83691D01*
X3851Y83901D01*
X3642Y84062D01*
X3463Y84136D01*
Y84609D01*
X3718Y84715D01*
X3960Y84900D01*
X4080Y85057D01*
X4227Y85064D01*
X14153Y75138D01*
D02*
G37*
G36*
X27310Y59060D02*
X27269Y58940D01*
X27193Y58930D01*
X26971Y58838D01*
X26780Y58691D01*
X26633Y58500D01*
X26541Y58278D01*
X26510Y58039D01*
X26541Y57800D01*
X26633Y57578D01*
X26683Y57512D01*
Y54016D01*
X26653Y53992D01*
X26506Y53801D01*
X26414Y53579D01*
X26383Y53340D01*
X26414Y53101D01*
X26506Y52879D01*
X26653Y52688D01*
X26844Y52541D01*
X27066Y52449D01*
X27305Y52418D01*
X27544Y52449D01*
X27766Y52541D01*
X27957Y52688D01*
X28104Y52879D01*
X28196Y53101D01*
X28227Y53340D01*
X28196Y53579D01*
X28104Y53801D01*
X27957Y53992D01*
X27927Y54016D01*
Y57266D01*
X28084Y57387D01*
X28231Y57578D01*
X28323Y57800D01*
X28333Y57876D01*
X28453Y57917D01*
X38326Y48044D01*
X38321Y48006D01*
X38352Y47767D01*
X38444Y47545D01*
X38591Y47354D01*
X38782Y47207D01*
X39004Y47115D01*
X39243Y47084D01*
X39482Y47115D01*
X39704Y47207D01*
X39895Y47354D01*
X40042Y47545D01*
X40134Y47767D01*
X40144Y47843D01*
X40264Y47884D01*
X40500Y47648D01*
X40480Y47498D01*
X40511Y47259D01*
X40603Y47037D01*
X40750Y46846D01*
X40941Y46699D01*
X41163Y46607D01*
X41402Y46576D01*
X41641Y46607D01*
X41796Y46672D01*
X41923Y46594D01*
Y43774D01*
X27155Y29005D01*
X27038Y29054D01*
Y33868D01*
X27068Y33892D01*
X27215Y34083D01*
X27307Y34305D01*
X27338Y34544D01*
X27307Y34783D01*
X27215Y35005D01*
X27068Y35196D01*
X26877Y35343D01*
X26655Y35435D01*
X26416Y35466D01*
X26177Y35435D01*
X26127Y35414D01*
X26022Y35485D01*
X26022Y59817D01*
X25974Y60055D01*
X25840Y60257D01*
X25790Y60306D01*
X25800Y60401D01*
X25921Y60449D01*
X27310Y59060D01*
D02*
G37*
G36*
X42812Y42739D02*
Y41670D01*
X28720Y27578D01*
X28590Y27561D01*
X28368Y27469D01*
X28181Y27325D01*
X28134Y27332D01*
X28054Y27359D01*
Y28146D01*
X42695Y42788D01*
X42812Y42739D01*
D02*
G37*
G36*
X30904Y27837D02*
Y26844D01*
X31438D01*
Y23361D01*
X31321Y23312D01*
X30928Y23705D01*
X29522D01*
X28819Y23002D01*
Y21596D01*
X29522Y20892D01*
X30928D01*
X31321Y21285D01*
X31438Y21237D01*
Y18840D01*
X31452Y18774D01*
X31333Y18720D01*
X31228Y18857D01*
X30934Y19082D01*
X30592Y19224D01*
X30225Y19272D01*
X29858Y19224D01*
X29516Y19082D01*
X29222Y18857D01*
X28997Y18563D01*
X28855Y18221D01*
X28806Y17854D01*
X28855Y17487D01*
X28997Y17144D01*
X29222Y16851D01*
X29516Y16625D01*
X29858Y16483D01*
X30225Y16435D01*
X30592Y16483D01*
X30934Y16625D01*
X31228Y16851D01*
X31453Y17144D01*
X31595Y17487D01*
X31644Y17854D01*
X31595Y18221D01*
X31577Y18264D01*
X31685Y18336D01*
X32267Y17754D01*
X32234Y17500D01*
X32273Y17198D01*
X32390Y16917D01*
X32575Y16675D01*
X32778Y16519D01*
Y15989D01*
X28315D01*
X28209Y16116D01*
X28227Y16256D01*
X28196Y16495D01*
X28104Y16717D01*
X27957Y16908D01*
X27766Y17055D01*
X27544Y17147D01*
X27305Y17178D01*
X27298Y17177D01*
X27038Y17438D01*
Y24586D01*
X27143Y24657D01*
X27193Y24636D01*
X27432Y24605D01*
X27671Y24636D01*
X27893Y24728D01*
X28084Y24875D01*
X28231Y25066D01*
X28323Y25288D01*
X28354Y25527D01*
X28325Y25752D01*
X28357Y25792D01*
X28427Y25847D01*
X28590Y25779D01*
X28829Y25748D01*
X29068Y25779D01*
X29290Y25871D01*
X29481Y26018D01*
X29628Y26209D01*
X29720Y26431D01*
X29751Y26670D01*
X29730Y26830D01*
X30786Y27886D01*
X30904Y27837D01*
D02*
G37*
G36*
X32037Y1755D02*
X31989Y1638D01*
X29477D01*
X29350Y1638D01*
X29350Y1765D01*
Y3950D01*
X27038D01*
Y1765D01*
X27038Y1638D01*
X26911Y1638D01*
X23676D01*
X23650Y1765D01*
X23697Y1784D01*
X23939Y1969D01*
X24124Y2211D01*
X24241Y2492D01*
X24280Y2794D01*
X24241Y3096D01*
X24124Y3377D01*
X23939Y3619D01*
X23866Y3675D01*
X23857Y3801D01*
X24133Y4077D01*
X29715D01*
X32037Y1755D01*
D02*
G37*
%LPC*%
G36*
X86208Y98081D02*
X85869Y98036D01*
X85554Y97906D01*
X85284Y97698D01*
X85076Y97427D01*
X85006Y97259D01*
X84869D01*
X84799Y97427D01*
X84591Y97698D01*
X84321Y97906D01*
X84006Y98036D01*
X83668Y98081D01*
X83329Y98036D01*
X83014Y97906D01*
X82744Y97698D01*
X82536Y97427D01*
X82466Y97259D01*
X82329D01*
X82259Y97427D01*
X82051Y97698D01*
X81781Y97906D01*
X81466Y98036D01*
X81128Y98081D01*
X80789Y98036D01*
X80474Y97906D01*
X80204Y97698D01*
X79996Y97427D01*
X79926Y97259D01*
X79789D01*
X79719Y97427D01*
X79511Y97698D01*
X79241Y97906D01*
X78926Y98036D01*
X78588Y98081D01*
X78249Y98036D01*
X77934Y97906D01*
X77664Y97698D01*
X77456Y97427D01*
X77386Y97259D01*
X77249D01*
X77179Y97427D01*
X76971Y97698D01*
X76701Y97906D01*
X76386Y98036D01*
X76048Y98081D01*
X75709Y98036D01*
X75394Y97906D01*
X75124Y97698D01*
X74916Y97427D01*
X74846Y97259D01*
X74709D01*
X74639Y97427D01*
X74431Y97698D01*
X74161Y97906D01*
X73846Y98036D01*
X73508Y98081D01*
X73169Y98036D01*
X72854Y97906D01*
X72584Y97698D01*
X72376Y97427D01*
X72306Y97259D01*
X72169D01*
X72099Y97427D01*
X71891Y97698D01*
X71621Y97906D01*
X71306Y98036D01*
X70968Y98081D01*
X70629Y98036D01*
X70314Y97906D01*
X70044Y97698D01*
X69836Y97427D01*
X69766Y97259D01*
X69629D01*
X69559Y97427D01*
X69351Y97698D01*
X69081Y97906D01*
X68766Y98036D01*
X68428Y98081D01*
X68089Y98036D01*
X67774Y97906D01*
X67504Y97698D01*
X67296Y97427D01*
X67226Y97259D01*
X67089D01*
X67019Y97427D01*
X66811Y97698D01*
X66541Y97906D01*
X66226Y98036D01*
X65888Y98081D01*
X65549Y98036D01*
X65234Y97906D01*
X64964Y97698D01*
X64756Y97427D01*
X64686Y97259D01*
X64549D01*
X64479Y97427D01*
X64271Y97698D01*
X64001Y97906D01*
X63686Y98036D01*
X63348Y98081D01*
X63009Y98036D01*
X62694Y97906D01*
X62424Y97698D01*
X62216Y97427D01*
X62146Y97259D01*
X62009D01*
X61939Y97427D01*
X61731Y97698D01*
X61461Y97906D01*
X61146Y98036D01*
X60808Y98081D01*
X60469Y98036D01*
X60154Y97906D01*
X59884Y97698D01*
X59676Y97427D01*
X59606Y97259D01*
X59469D01*
X59399Y97427D01*
X59191Y97698D01*
X58921Y97906D01*
X58606Y98036D01*
X58268Y98081D01*
X57929Y98036D01*
X57614Y97906D01*
X57344Y97698D01*
X57136Y97427D01*
X57066Y97259D01*
X56929D01*
X56859Y97427D01*
X56651Y97698D01*
X56381Y97906D01*
X56066Y98036D01*
X55728Y98081D01*
X55389Y98036D01*
X55074Y97906D01*
X54804Y97698D01*
X54596Y97427D01*
X54526Y97259D01*
X54389D01*
X54319Y97427D01*
X54111Y97698D01*
X53841Y97906D01*
X53526Y98036D01*
X53188Y98081D01*
X52849Y98036D01*
X52534Y97906D01*
X52264Y97698D01*
X52056Y97427D01*
X51986Y97259D01*
X51849D01*
X51779Y97427D01*
X51571Y97698D01*
X51301Y97906D01*
X50986Y98036D01*
X50648Y98081D01*
X50309Y98036D01*
X49994Y97906D01*
X49724Y97698D01*
X49516Y97427D01*
X49386Y97112D01*
X49341Y96774D01*
X49386Y96436D01*
X49516Y96121D01*
X49724Y95850D01*
X49994Y95643D01*
X50309Y95512D01*
X50648Y95467D01*
X50986Y95512D01*
X51301Y95643D01*
X51571Y95850D01*
X51779Y96121D01*
X51849Y96289D01*
X51986D01*
X52056Y96121D01*
X52264Y95850D01*
X52534Y95642D01*
X52849Y95512D01*
X53188Y95467D01*
X53526Y95512D01*
X53841Y95642D01*
X54111Y95850D01*
X54319Y96121D01*
X54389Y96289D01*
X54526D01*
X54596Y96121D01*
X54804Y95850D01*
X55074Y95642D01*
X55389Y95512D01*
X55728Y95467D01*
X56066Y95512D01*
X56381Y95642D01*
X56651Y95850D01*
X56859Y96121D01*
X56929Y96289D01*
X57066D01*
X57136Y96121D01*
X57344Y95850D01*
X57614Y95643D01*
X57929Y95512D01*
X58268Y95467D01*
X58606Y95512D01*
X58921Y95643D01*
X59191Y95850D01*
X59399Y96121D01*
X59469Y96289D01*
X59606D01*
X59676Y96121D01*
X59884Y95850D01*
X60154Y95643D01*
X60469Y95512D01*
X60808Y95467D01*
X61146Y95512D01*
X61461Y95643D01*
X61731Y95850D01*
X61939Y96121D01*
X62009Y96289D01*
X62146D01*
X62216Y96121D01*
X62424Y95850D01*
X62694Y95643D01*
X63009Y95512D01*
X63348Y95467D01*
X63686Y95512D01*
X64001Y95643D01*
X64271Y95850D01*
X64479Y96121D01*
X64549Y96289D01*
X64686D01*
X64756Y96121D01*
X64964Y95850D01*
X65234Y95643D01*
X65549Y95512D01*
X65888Y95467D01*
X66226Y95512D01*
X66541Y95643D01*
X66811Y95850D01*
X67019Y96121D01*
X67089Y96289D01*
X67226D01*
X67296Y96121D01*
X67504Y95850D01*
X67774Y95643D01*
X68089Y95512D01*
X68428Y95467D01*
X68766Y95512D01*
X69081Y95643D01*
X69351Y95850D01*
X69559Y96121D01*
X69629Y96289D01*
X69766D01*
X69836Y96121D01*
X70044Y95850D01*
X70314Y95643D01*
X70629Y95512D01*
X70968Y95467D01*
X71306Y95512D01*
X71621Y95643D01*
X71891Y95850D01*
X72099Y96121D01*
X72169Y96289D01*
X72306D01*
X72376Y96121D01*
X72584Y95850D01*
X72854Y95643D01*
X73169Y95512D01*
X73508Y95467D01*
X73846Y95512D01*
X74161Y95643D01*
X74431Y95850D01*
X74639Y96121D01*
X74709Y96289D01*
X74846D01*
X74916Y96121D01*
X75124Y95850D01*
X75394Y95643D01*
X75709Y95512D01*
X76048Y95467D01*
X76386Y95512D01*
X76701Y95643D01*
X76971Y95850D01*
X77179Y96121D01*
X77249Y96289D01*
X77386D01*
X77456Y96121D01*
X77664Y95850D01*
X77934Y95643D01*
X78249Y95512D01*
X78588Y95467D01*
X78926Y95512D01*
X79241Y95643D01*
X79511Y95850D01*
X79719Y96121D01*
X79789Y96289D01*
X79926D01*
X79996Y96121D01*
X80204Y95850D01*
X80474Y95643D01*
X80789Y95512D01*
X81128Y95467D01*
X81466Y95512D01*
X81781Y95643D01*
X82051Y95850D01*
X82259Y96121D01*
X82329Y96289D01*
X82466D01*
X82536Y96121D01*
X82744Y95850D01*
X83014Y95643D01*
X83329Y95512D01*
X83668Y95467D01*
X84006Y95512D01*
X84321Y95643D01*
X84591Y95850D01*
X84799Y96121D01*
X84869Y96289D01*
X85006D01*
X85076Y96121D01*
X85284Y95850D01*
X85554Y95643D01*
X85869Y95512D01*
X86208Y95467D01*
X86546Y95512D01*
X86861Y95643D01*
X87131Y95850D01*
X87339Y96121D01*
X87470Y96436D01*
X87478Y96496D01*
X87605Y96488D01*
Y95631D01*
X88621D01*
Y96774D01*
Y97917D01*
X87605D01*
Y97060D01*
X87478Y97052D01*
X87470Y97112D01*
X87339Y97427D01*
X87131Y97698D01*
X86861Y97906D01*
X86546Y98036D01*
X86208Y98081D01*
D02*
G37*
G36*
X89891Y97917D02*
X88875D01*
Y96901D01*
X89891D01*
Y97917D01*
D02*
G37*
G36*
Y96647D02*
X88875D01*
Y95631D01*
X89891D01*
Y96647D01*
D02*
G37*
G36*
X71628Y94140D02*
X71389Y94109D01*
X71167Y94017D01*
X70976Y93870D01*
X70938Y93821D01*
X48811D01*
X48721Y93890D01*
X48499Y93982D01*
X48260Y94013D01*
X48021Y93982D01*
X47799Y93890D01*
X47608Y93743D01*
X47461Y93552D01*
X47369Y93330D01*
X47338Y93091D01*
X47369Y92852D01*
X47461Y92630D01*
X47608Y92439D01*
X47799Y92292D01*
X48021Y92200D01*
X48260Y92169D01*
X48499Y92200D01*
X48721Y92292D01*
X48912Y92439D01*
X48950Y92488D01*
X71077D01*
X71167Y92419D01*
X71389Y92327D01*
X71628Y92296D01*
X71867Y92327D01*
X72089Y92419D01*
X72280Y92566D01*
X72427Y92757D01*
X72519Y92979D01*
X72550Y93218D01*
X72519Y93457D01*
X72427Y93679D01*
X72280Y93870D01*
X72089Y94017D01*
X71867Y94109D01*
X71628Y94140D01*
D02*
G37*
G36*
X19511Y94059D02*
Y92837D01*
X20733D01*
X20703Y93063D01*
X20567Y93393D01*
X20350Y93676D01*
X20067Y93893D01*
X19737Y94029D01*
X19511Y94059D01*
D02*
G37*
G36*
X19257D02*
X19031Y94029D01*
X18701Y93893D01*
X18418Y93676D01*
X18201Y93393D01*
X18065Y93063D01*
X18035Y92837D01*
X19257D01*
Y94059D01*
D02*
G37*
G36*
X20733Y92583D02*
X19511D01*
Y91361D01*
X19737Y91391D01*
X20067Y91527D01*
X20350Y91744D01*
X20567Y92027D01*
X20703Y92357D01*
X20733Y92583D01*
D02*
G37*
G36*
X19257D02*
X18035D01*
X18065Y92357D01*
X18201Y92027D01*
X18418Y91744D01*
X18701Y91527D01*
X19031Y91391D01*
X19257Y91361D01*
Y92583D01*
D02*
G37*
G36*
X24384Y94224D02*
X24089Y94195D01*
X23805Y94108D01*
X23543Y93969D01*
X23314Y93780D01*
X23125Y93551D01*
X22986Y93289D01*
X22899Y93005D01*
X22870Y92710D01*
X22899Y92415D01*
X22986Y92131D01*
X23125Y91869D01*
X23314Y91640D01*
X23543Y91451D01*
X23805Y91312D01*
X24089Y91225D01*
X24384Y91196D01*
X24679Y91225D01*
X24963Y91312D01*
X25225Y91451D01*
X25454Y91640D01*
X25643Y91869D01*
X25782Y92131D01*
X25869Y92415D01*
X25898Y92710D01*
X25869Y93005D01*
X25782Y93289D01*
X25643Y93551D01*
X25454Y93780D01*
X25225Y93969D01*
X24963Y94108D01*
X24679Y94195D01*
X24384Y94224D01*
D02*
G37*
G36*
X86106Y92323D02*
X85834Y92288D01*
X85581Y92183D01*
X85363Y92016D01*
X85270Y91895D01*
X51141D01*
X50903Y91847D01*
X50701Y91713D01*
X49568Y90579D01*
X49530Y90584D01*
X49291Y90553D01*
X49069Y90461D01*
X48878Y90314D01*
X48731Y90123D01*
X48639Y89901D01*
X48608Y89662D01*
X48639Y89423D01*
X48731Y89201D01*
X48878Y89010D01*
X49069Y88863D01*
X49291Y88771D01*
X49530Y88740D01*
X49769Y88771D01*
X49991Y88863D01*
X50182Y89010D01*
X50329Y89201D01*
X50421Y89423D01*
X50452Y89662D01*
X50447Y89700D01*
X51398Y90651D01*
X85270D01*
X85363Y90530D01*
X85581Y90363D01*
X85834Y90258D01*
X86106Y90223D01*
X86378Y90258D01*
X86631Y90363D01*
X86849Y90530D01*
X87016Y90748D01*
X87121Y91001D01*
X87156Y91273D01*
X87121Y91545D01*
X87016Y91798D01*
X86849Y92016D01*
X86631Y92183D01*
X86378Y92288D01*
X86106Y92323D01*
D02*
G37*
G36*
X83606Y89823D02*
X83334Y89788D01*
X83081Y89683D01*
X82863Y89516D01*
X82696Y89298D01*
X82591Y89045D01*
X82556Y88773D01*
X82591Y88501D01*
X82696Y88248D01*
X82863Y88030D01*
X83081Y87863D01*
X83334Y87758D01*
X83606Y87723D01*
X83878Y87758D01*
X84131Y87863D01*
X84349Y88030D01*
X84516Y88248D01*
X84621Y88501D01*
X84656Y88773D01*
X84621Y89045D01*
X84516Y89298D01*
X84349Y89516D01*
X84131Y89683D01*
X83878Y89788D01*
X83606Y89823D01*
D02*
G37*
G36*
X86233Y87153D02*
Y86400D01*
X86986D01*
X86972Y86505D01*
X86883Y86721D01*
X86740Y86907D01*
X86554Y87050D01*
X86338Y87139D01*
X86233Y87153D01*
D02*
G37*
G36*
X85979D02*
X85874Y87139D01*
X85658Y87050D01*
X85472Y86907D01*
X85329Y86721D01*
X85240Y86505D01*
X85226Y86400D01*
X85979D01*
Y87153D01*
D02*
G37*
G36*
Y86146D02*
X85226D01*
X85240Y86041D01*
X85329Y85825D01*
X85472Y85639D01*
X85658Y85496D01*
X85874Y85407D01*
X85979Y85393D01*
Y86146D01*
D02*
G37*
G36*
X86986D02*
X86233D01*
Y85393D01*
X86338Y85407D01*
X86554Y85496D01*
X86740Y85639D01*
X86883Y85825D01*
X86972Y86041D01*
X86986Y86146D01*
D02*
G37*
G36*
X15240Y83165D02*
Y82296D01*
X16109D01*
X16091Y82431D01*
X15990Y82675D01*
X15829Y82885D01*
X15619Y83046D01*
X15375Y83147D01*
X15240Y83165D01*
D02*
G37*
G36*
X14986D02*
X14851Y83147D01*
X14607Y83046D01*
X14397Y82885D01*
X14236Y82675D01*
X14135Y82431D01*
X14117Y82296D01*
X14986D01*
Y83165D01*
D02*
G37*
G36*
X16109Y82042D02*
X15240D01*
Y81173D01*
X15375Y81191D01*
X15619Y81292D01*
X15829Y81453D01*
X15990Y81663D01*
X16091Y81907D01*
X16109Y82042D01*
D02*
G37*
G36*
X14986D02*
X14117D01*
X14135Y81907D01*
X14236Y81663D01*
X14397Y81453D01*
X14607Y81292D01*
X14851Y81191D01*
X14986Y81173D01*
Y82042D01*
D02*
G37*
G36*
X79248Y78740D02*
X78105D01*
Y77724D01*
X77851D01*
Y78740D01*
X76708D01*
Y78266D01*
X76188D01*
X76030Y78235D01*
X75895Y78145D01*
X75805Y78010D01*
X75774Y77852D01*
Y75700D01*
X75789Y75626D01*
Y69723D01*
X75820Y69564D01*
X75910Y69430D01*
X76044Y69340D01*
X76062Y69337D01*
X76092Y69316D01*
X76153Y69304D01*
X76166Y69172D01*
X76150Y69165D01*
X75919Y68988D01*
X75742Y68757D01*
X75630Y68488D01*
X75592Y68199D01*
X75630Y67910D01*
X75742Y67641D01*
X75919Y67410D01*
X76150Y67233D01*
X76419Y67121D01*
X76708Y67083D01*
X76997Y67121D01*
X77266Y67233D01*
X77497Y67410D01*
X77674Y67641D01*
X77786Y67910D01*
X77824Y68199D01*
X77786Y68488D01*
X77674Y68757D01*
X77497Y68988D01*
X77276Y69157D01*
X77276Y69172D01*
X77361Y69284D01*
X78595D01*
X78680Y69172D01*
X78680Y69157D01*
X78459Y68988D01*
X78282Y68757D01*
X78170Y68488D01*
X78132Y68199D01*
X78170Y67910D01*
X78282Y67641D01*
X78459Y67410D01*
X78690Y67233D01*
X78959Y67121D01*
X79248Y67083D01*
X79537Y67121D01*
X79806Y67233D01*
X80037Y67410D01*
X80214Y67641D01*
X80326Y67910D01*
X80364Y68199D01*
X80326Y68488D01*
X80214Y68757D01*
X80037Y68988D01*
X79806Y69165D01*
X79805Y69166D01*
X79818Y69298D01*
X79910Y69316D01*
X80044Y69406D01*
X80134Y69540D01*
X80165Y69699D01*
Y75699D01*
X80151Y75773D01*
Y77852D01*
X80119Y78010D01*
X80029Y78145D01*
X79895Y78235D01*
X79736Y78266D01*
X79248D01*
Y78740D01*
D02*
G37*
G36*
X39497Y76256D02*
Y75311D01*
X40442D01*
X40422Y75466D01*
X40313Y75728D01*
X40140Y75954D01*
X39914Y76127D01*
X39652Y76236D01*
X39497Y76256D01*
D02*
G37*
G36*
X39243D02*
X39088Y76236D01*
X38826Y76127D01*
X38600Y75954D01*
X38427Y75728D01*
X38318Y75466D01*
X38298Y75311D01*
X39243D01*
Y76256D01*
D02*
G37*
G36*
X40442Y75057D02*
X39497D01*
Y74112D01*
X39652Y74132D01*
X39914Y74241D01*
X40140Y74414D01*
X40313Y74640D01*
X40422Y74902D01*
X40442Y75057D01*
D02*
G37*
G36*
X39243D02*
X38298D01*
X38318Y74902D01*
X38427Y74640D01*
X38600Y74414D01*
X38826Y74241D01*
X39088Y74132D01*
X39243Y74112D01*
Y75057D01*
D02*
G37*
G36*
X98540Y73902D02*
X97663D01*
Y73025D01*
X98540D01*
Y73902D01*
D02*
G37*
G36*
X95123Y73894D02*
Y73025D01*
X95992D01*
X95974Y73160D01*
X95873Y73404D01*
X95712Y73614D01*
X95502Y73775D01*
X95258Y73876D01*
X95123Y73894D01*
D02*
G37*
G36*
X94869D02*
X94734Y73876D01*
X94490Y73775D01*
X94280Y73614D01*
X94119Y73404D01*
X94018Y73160D01*
X94000Y73025D01*
X94869D01*
Y73894D01*
D02*
G37*
G36*
X97409Y73902D02*
X96532D01*
Y73025D01*
X97409D01*
Y73902D01*
D02*
G37*
G36*
X95992Y72771D02*
X95123D01*
Y71902D01*
X95258Y71920D01*
X95502Y72021D01*
X95712Y72182D01*
X95873Y72392D01*
X95974Y72636D01*
X95992Y72771D01*
D02*
G37*
G36*
X94869D02*
X94000D01*
X94018Y72636D01*
X94119Y72392D01*
X94280Y72182D01*
X94490Y72021D01*
X94734Y71920D01*
X94869Y71902D01*
Y72771D01*
D02*
G37*
G36*
X98540D02*
X97663D01*
Y71894D01*
X98540D01*
Y72771D01*
D02*
G37*
G36*
X97409D02*
X96532D01*
Y71894D01*
X97409D01*
Y72771D01*
D02*
G37*
G36*
X96774Y69576D02*
Y68707D01*
X97643D01*
X97625Y68842D01*
X97524Y69086D01*
X97363Y69296D01*
X97153Y69457D01*
X96909Y69558D01*
X96774Y69576D01*
D02*
G37*
G36*
X96520D02*
X96385Y69558D01*
X96141Y69457D01*
X95931Y69296D01*
X95770Y69086D01*
X95669Y68842D01*
X95651Y68707D01*
X96520D01*
Y69576D01*
D02*
G37*
G36*
X97643Y68453D02*
X96774D01*
Y67584D01*
X96909Y67602D01*
X97153Y67703D01*
X97363Y67864D01*
X97524Y68074D01*
X97625Y68318D01*
X97643Y68453D01*
D02*
G37*
G36*
X96520D02*
X95651D01*
X95669Y68318D01*
X95770Y68074D01*
X95931Y67864D01*
X96141Y67703D01*
X96385Y67602D01*
X96520Y67584D01*
Y68453D01*
D02*
G37*
G36*
X60264Y57525D02*
Y56388D01*
X61401D01*
X61374Y56593D01*
X61246Y56901D01*
X61043Y57167D01*
X60777Y57370D01*
X60469Y57498D01*
X60264Y57525D01*
D02*
G37*
G36*
X60010D02*
X59805Y57498D01*
X59497Y57370D01*
X59231Y57167D01*
X59028Y56901D01*
X58900Y56593D01*
X58873Y56388D01*
X60010D01*
Y57525D01*
D02*
G37*
G36*
X61401Y56134D02*
X60264D01*
Y54997D01*
X60469Y55024D01*
X60777Y55152D01*
X61043Y55355D01*
X61246Y55621D01*
X61374Y55929D01*
X61401Y56134D01*
D02*
G37*
G36*
X60010D02*
X58873D01*
X58900Y55929D01*
X59028Y55621D01*
X59231Y55355D01*
X59497Y55152D01*
X59805Y55024D01*
X60010Y54997D01*
Y56134D01*
D02*
G37*
G36*
X80162Y57721D02*
X79791Y57672D01*
X79445Y57529D01*
X79148Y57301D01*
X78920Y57004D01*
X78777Y56658D01*
X78728Y56286D01*
X78777Y55915D01*
X78920Y55569D01*
X79148Y55272D01*
X79445Y55044D01*
X79791Y54901D01*
X80162Y54852D01*
X80534Y54901D01*
X80880Y55044D01*
X81177Y55272D01*
X81405Y55569D01*
X81548Y55915D01*
X81597Y56286D01*
X81548Y56658D01*
X81405Y57004D01*
X81177Y57301D01*
X80880Y57529D01*
X80534Y57672D01*
X80162Y57721D01*
D02*
G37*
G36*
X96241Y44730D02*
X95778Y44693D01*
X95327Y44585D01*
X94899Y44407D01*
X94503Y44165D01*
X94151Y43864D01*
X93850Y43511D01*
X93607Y43116D01*
X93430Y42687D01*
X93321Y42236D01*
X93285Y41774D01*
X93321Y41312D01*
X93430Y40861D01*
X93607Y40432D01*
X93850Y40037D01*
X94151Y39684D01*
X94503Y39383D01*
X94899Y39141D01*
X95327Y38963D01*
X95778Y38855D01*
X96241Y38819D01*
X96703Y38855D01*
X97154Y38963D01*
X97582Y39141D01*
X97978Y39383D01*
X98330Y39684D01*
X98632Y40037D01*
X98874Y40432D01*
X99051Y40861D01*
X99160Y41312D01*
X99196Y41774D01*
X99160Y42236D01*
X99051Y42687D01*
X98874Y43116D01*
X98632Y43511D01*
X98330Y43864D01*
X97978Y44165D01*
X97582Y44407D01*
X97154Y44585D01*
X96703Y44693D01*
X96241Y44730D01*
D02*
G37*
G36*
X62992Y52357D02*
X62753Y52326D01*
X62531Y52234D01*
X62340Y52087D01*
X62193Y51896D01*
X62101Y51674D01*
X62070Y51435D01*
X62101Y51196D01*
X62193Y50974D01*
X62340Y50783D01*
X62531Y50636D01*
X62753Y50544D01*
X62761Y50543D01*
X64606Y48698D01*
Y37846D01*
X64606Y37846D01*
X64606Y37846D01*
Y29156D01*
X64244D01*
Y26844D01*
X64778D01*
Y23291D01*
X64661Y23242D01*
X64198Y23705D01*
X62792D01*
X62089Y23002D01*
Y21596D01*
X62792Y20892D01*
X64198D01*
X64661Y21355D01*
X64778Y21307D01*
Y18770D01*
X64797Y18675D01*
X64678Y18622D01*
X64498Y18857D01*
X64204Y19082D01*
X63862Y19224D01*
X63495Y19272D01*
X63128Y19224D01*
X62786Y19082D01*
X62492Y18857D01*
X62267Y18563D01*
X62125Y18221D01*
X62076Y17854D01*
X62125Y17487D01*
X62267Y17144D01*
X62492Y16851D01*
X62786Y16625D01*
X63128Y16483D01*
X63495Y16435D01*
X63862Y16483D01*
X64204Y16625D01*
X64498Y16851D01*
X64723Y17144D01*
X64865Y17487D01*
X64914Y17854D01*
X64865Y18221D01*
X64839Y18283D01*
X64952Y18343D01*
X64961Y18330D01*
X65537Y17754D01*
X65504Y17500D01*
X65543Y17198D01*
X65660Y16917D01*
X65845Y16675D01*
X66087Y16490D01*
X66368Y16373D01*
X66670Y16334D01*
X66972Y16373D01*
X67253Y16490D01*
X67495Y16675D01*
X67680Y16917D01*
X67797Y17198D01*
X67836Y17500D01*
X67797Y17802D01*
X67680Y18083D01*
X67495Y18325D01*
X67253Y18510D01*
X66972Y18627D01*
X66670Y18666D01*
X66416Y18633D01*
X66022Y19027D01*
Y21389D01*
X66149Y21464D01*
X66368Y21373D01*
X66670Y21334D01*
X66972Y21373D01*
X67253Y21490D01*
X67495Y21675D01*
X67680Y21917D01*
X67797Y22198D01*
X67836Y22500D01*
X67797Y22802D01*
X67680Y23083D01*
X67495Y23325D01*
X67292Y23481D01*
Y26473D01*
X67686Y26867D01*
X67940Y26834D01*
X68242Y26873D01*
X68523Y26990D01*
X68765Y27175D01*
X68950Y27417D01*
X69067Y27698D01*
X69106Y28000D01*
X69067Y28302D01*
X68950Y28583D01*
X68765Y28825D01*
X68523Y29010D01*
X68242Y29127D01*
X67940Y29166D01*
X67638Y29127D01*
X67357Y29010D01*
X67115Y28825D01*
X66930Y28583D01*
X66813Y28302D01*
X66774Y28000D01*
X66807Y27746D01*
X66674Y27613D01*
X66556Y27661D01*
Y29156D01*
X66194D01*
Y37179D01*
X75479D01*
X75485Y37174D01*
X75707Y37082D01*
X75946Y37051D01*
X76185Y37082D01*
X76407Y37174D01*
X76413Y37179D01*
X83855D01*
X83880Y37052D01*
X83740Y36994D01*
X83549Y36847D01*
X83525Y36817D01*
X77597D01*
X77359Y36769D01*
X77158Y36634D01*
X76619Y36096D01*
X76581Y36101D01*
X76342Y36070D01*
X76120Y35978D01*
X75929Y35831D01*
X75782Y35640D01*
X75690Y35418D01*
X75659Y35179D01*
X75690Y34940D01*
X75782Y34718D01*
X75929Y34527D01*
X76120Y34380D01*
X76342Y34288D01*
X76581Y34257D01*
X76820Y34288D01*
X77042Y34380D01*
X77233Y34527D01*
X77380Y34718D01*
X77472Y34940D01*
X77503Y35179D01*
X77498Y35217D01*
X77845Y35564D01*
X77974Y35555D01*
X78041Y35446D01*
X77976Y35291D01*
X77945Y35052D01*
X77976Y34813D01*
X78068Y34591D01*
X78215Y34400D01*
X78406Y34253D01*
X78628Y34161D01*
X78867Y34130D01*
X79106Y34161D01*
X79328Y34253D01*
X79519Y34400D01*
X79543Y34430D01*
X82772D01*
X82780Y34303D01*
X82692Y34292D01*
X82470Y34200D01*
X82279Y34053D01*
X82132Y33862D01*
X82040Y33640D01*
X82009Y33401D01*
X82040Y33162D01*
X82132Y32940D01*
X82279Y32749D01*
X82470Y32602D01*
X82692Y32510D01*
X82931Y32479D01*
X83170Y32510D01*
X83392Y32602D01*
X83583Y32749D01*
X83607Y32779D01*
X89629D01*
X92314Y30095D01*
X92241Y29857D01*
X92212Y29562D01*
X92241Y29266D01*
X92328Y28983D01*
X92467Y28721D01*
X92656Y28491D01*
X92885Y28303D01*
X93147Y28163D01*
X93431Y28077D01*
X93726Y28048D01*
X94021Y28077D01*
X94305Y28163D01*
X94567Y28303D01*
X94796Y28491D01*
X94985Y28721D01*
X95124Y28983D01*
X95211Y29266D01*
X95240Y29562D01*
X95211Y29857D01*
X95124Y30141D01*
X94985Y30403D01*
X94796Y30632D01*
X94567Y30820D01*
X94305Y30960D01*
X94021Y31046D01*
X93726Y31075D01*
X93431Y31046D01*
X93193Y30974D01*
X90326Y33840D01*
X90125Y33975D01*
X89887Y34023D01*
X88551D01*
X88543Y34150D01*
X88631Y34161D01*
X88853Y34253D01*
X89044Y34400D01*
X89191Y34591D01*
X89283Y34813D01*
X89314Y35052D01*
X89283Y35291D01*
X89191Y35513D01*
X89044Y35704D01*
X88853Y35851D01*
X88631Y35943D01*
X88392Y35974D01*
X88153Y35943D01*
X87931Y35851D01*
X87740Y35704D01*
X87716Y35674D01*
X85105D01*
X85027Y35801D01*
X85092Y35956D01*
X85123Y36195D01*
X85092Y36434D01*
X85000Y36656D01*
X84853Y36847D01*
X84662Y36994D01*
X84522Y37052D01*
X84547Y37179D01*
X85321D01*
X85327Y37174D01*
X85550Y37082D01*
X85788Y37051D01*
X86027Y37082D01*
X86250Y37174D01*
X86256Y37179D01*
X93259D01*
X93265Y37174D01*
X93487Y37082D01*
X93726Y37051D01*
X93965Y37082D01*
X94187Y37174D01*
X94378Y37321D01*
X94525Y37512D01*
X94617Y37734D01*
X94648Y37973D01*
X94617Y38212D01*
X94525Y38434D01*
X94378Y38625D01*
X94187Y38772D01*
X93965Y38864D01*
X93726Y38895D01*
X93487Y38864D01*
X93265Y38772D01*
X93259Y38767D01*
X86256D01*
X86250Y38772D01*
X86027Y38864D01*
X85788Y38895D01*
X85550Y38864D01*
X85327Y38772D01*
X85321Y38767D01*
X76413D01*
X76407Y38772D01*
X76185Y38864D01*
X75946Y38895D01*
X75707Y38864D01*
X75485Y38772D01*
X75479Y38767D01*
X66194D01*
Y49027D01*
X66167Y49233D01*
X66088Y49424D01*
X65962Y49589D01*
X65962Y49589D01*
X63884Y51666D01*
X63883Y51674D01*
X63791Y51896D01*
X63644Y52087D01*
X63453Y52234D01*
X63231Y52326D01*
X62992Y52357D01*
D02*
G37*
G36*
X50038Y35794D02*
Y34925D01*
X50907D01*
X50889Y35060D01*
X50788Y35304D01*
X50627Y35514D01*
X50417Y35675D01*
X50173Y35776D01*
X50038Y35794D01*
D02*
G37*
G36*
X49784D02*
X49649Y35776D01*
X49405Y35675D01*
X49195Y35514D01*
X49034Y35304D01*
X48933Y35060D01*
X48915Y34925D01*
X49784D01*
Y35794D01*
D02*
G37*
G36*
X8636Y36345D02*
X8334Y36306D01*
X8053Y36189D01*
X7811Y36004D01*
X7626Y35762D01*
X7509Y35481D01*
X7470Y35179D01*
X7509Y34877D01*
X7626Y34596D01*
X7811Y34354D01*
X8053Y34169D01*
X8334Y34052D01*
X8636Y34013D01*
X8938Y34052D01*
X9219Y34169D01*
X9461Y34354D01*
X9646Y34596D01*
X9763Y34877D01*
X9802Y35179D01*
X9763Y35481D01*
X9646Y35762D01*
X9461Y36004D01*
X9219Y36189D01*
X8938Y36306D01*
X8636Y36345D01*
D02*
G37*
G36*
X50907Y34671D02*
X50038D01*
Y33802D01*
X50173Y33820D01*
X50417Y33921D01*
X50627Y34082D01*
X50788Y34292D01*
X50889Y34536D01*
X50907Y34671D01*
D02*
G37*
G36*
X49784D02*
X48915D01*
X48933Y34536D01*
X49034Y34292D01*
X49195Y34082D01*
X49405Y33921D01*
X49649Y33820D01*
X49784Y33802D01*
Y34671D01*
D02*
G37*
G36*
X48527Y35954D02*
X46215D01*
Y33642D01*
X48527D01*
Y35954D01*
D02*
G37*
G36*
X52451Y35964D02*
X52149Y35925D01*
X51868Y35808D01*
X51626Y35623D01*
X51441Y35381D01*
X51324Y35100D01*
X51285Y34798D01*
X51324Y34496D01*
X51441Y34215D01*
X51626Y33973D01*
X51868Y33788D01*
X52149Y33671D01*
X52451Y33632D01*
X52753Y33671D01*
X53034Y33788D01*
X53276Y33973D01*
X53461Y34215D01*
X53578Y34496D01*
X53617Y34798D01*
X53578Y35100D01*
X53461Y35381D01*
X53276Y35623D01*
X53034Y35808D01*
X52753Y35925D01*
X52451Y35964D01*
D02*
G37*
G36*
X6096Y31224D02*
X5801Y31195D01*
X5517Y31109D01*
X5255Y30969D01*
X5026Y30781D01*
X4837Y30551D01*
X4698Y30290D01*
X4611Y30006D01*
X4582Y29710D01*
X4611Y29415D01*
X4698Y29131D01*
X4837Y28869D01*
X5026Y28640D01*
X5255Y28452D01*
X5517Y28312D01*
X5801Y28226D01*
X6096Y28197D01*
X6391Y28226D01*
X6675Y28312D01*
X6937Y28452D01*
X7166Y28640D01*
X7355Y28869D01*
X7494Y29131D01*
X7581Y29415D01*
X7610Y29710D01*
X7581Y30006D01*
X7494Y30290D01*
X7355Y30551D01*
X7166Y30781D01*
X6937Y30969D01*
X6675Y31109D01*
X6391Y31195D01*
X6096Y31224D01*
D02*
G37*
G36*
X16371Y28996D02*
Y28127D01*
X17240D01*
X17222Y28262D01*
X17121Y28506D01*
X16960Y28716D01*
X16750Y28877D01*
X16506Y28978D01*
X16371Y28996D01*
D02*
G37*
G36*
X16117D02*
X15982Y28978D01*
X15738Y28877D01*
X15528Y28716D01*
X15367Y28506D01*
X15266Y28262D01*
X15248Y28127D01*
X16117D01*
Y28996D01*
D02*
G37*
G36*
X84610Y29166D02*
X84308Y29127D01*
X84027Y29010D01*
X83785Y28825D01*
X83600Y28583D01*
X83483Y28302D01*
X83444Y28000D01*
X83477Y27746D01*
X83344Y27613D01*
X83226Y27661D01*
Y29156D01*
X80914D01*
Y26844D01*
X81448D01*
Y23291D01*
X81331Y23242D01*
X80868Y23705D01*
X79462D01*
X78759Y23002D01*
Y21596D01*
X79462Y20892D01*
X80868D01*
X81331Y21355D01*
X81448Y21307D01*
Y18770D01*
X81467Y18675D01*
X81348Y18622D01*
X81168Y18857D01*
X80874Y19082D01*
X80532Y19224D01*
X80165Y19272D01*
X79798Y19224D01*
X79456Y19082D01*
X79162Y18857D01*
X78937Y18563D01*
X78795Y18221D01*
X78746Y17854D01*
X78795Y17487D01*
X78937Y17144D01*
X79162Y16851D01*
X79456Y16625D01*
X79798Y16483D01*
X80165Y16435D01*
X80532Y16483D01*
X80874Y16625D01*
X81168Y16851D01*
X81393Y17144D01*
X81535Y17487D01*
X81584Y17854D01*
X81535Y18221D01*
X81509Y18283D01*
X81622Y18343D01*
X81631Y18330D01*
X82207Y17754D01*
X82174Y17500D01*
X82213Y17198D01*
X82330Y16917D01*
X82515Y16675D01*
X82757Y16490D01*
X83038Y16373D01*
X83340Y16334D01*
X83642Y16373D01*
X83923Y16490D01*
X84165Y16675D01*
X84350Y16917D01*
X84467Y17198D01*
X84506Y17500D01*
X84467Y17802D01*
X84350Y18083D01*
X84165Y18325D01*
X83923Y18510D01*
X83642Y18627D01*
X83340Y18666D01*
X83086Y18633D01*
X82692Y19027D01*
Y21389D01*
X82819Y21464D01*
X83038Y21373D01*
X83340Y21334D01*
X83642Y21373D01*
X83923Y21490D01*
X84165Y21675D01*
X84350Y21917D01*
X84467Y22198D01*
X84506Y22500D01*
X84467Y22802D01*
X84350Y23083D01*
X84165Y23325D01*
X83962Y23481D01*
Y26473D01*
X84356Y26867D01*
X84610Y26834D01*
X84912Y26873D01*
X85193Y26990D01*
X85435Y27175D01*
X85620Y27417D01*
X85737Y27698D01*
X85776Y28000D01*
X85737Y28302D01*
X85620Y28583D01*
X85435Y28825D01*
X85193Y29010D01*
X84912Y29127D01*
X84610Y29166D01*
D02*
G37*
G36*
X17240Y27873D02*
X16371D01*
Y27004D01*
X16506Y27022D01*
X16750Y27123D01*
X16960Y27284D01*
X17121Y27494D01*
X17222Y27738D01*
X17240Y27873D01*
D02*
G37*
G36*
X16117D02*
X15248D01*
X15266Y27738D01*
X15367Y27494D01*
X15528Y27284D01*
X15738Y27123D01*
X15982Y27022D01*
X16117Y27004D01*
Y27873D01*
D02*
G37*
G36*
X19940Y29156D02*
X17628D01*
Y26844D01*
X19940D01*
Y29156D01*
D02*
G37*
G36*
X93726Y26075D02*
X93431Y26046D01*
X93147Y25960D01*
X93021Y25893D01*
X93015Y25895D01*
X92777Y25847D01*
X92575Y25712D01*
X92441Y25511D01*
X92393Y25273D01*
X92395Y25266D01*
X92328Y25141D01*
X92241Y24857D01*
X92212Y24562D01*
X92241Y24266D01*
X92328Y23983D01*
X92467Y23721D01*
X92656Y23491D01*
X92885Y23303D01*
X93147Y23163D01*
X93431Y23077D01*
X93726Y23048D01*
X94021Y23077D01*
X94305Y23163D01*
X94567Y23303D01*
X94796Y23491D01*
X94985Y23721D01*
X95124Y23983D01*
X95211Y24266D01*
X95240Y24562D01*
X95211Y24857D01*
X95124Y25141D01*
X94985Y25403D01*
X94796Y25632D01*
X94567Y25820D01*
X94305Y25960D01*
X94021Y26046D01*
X93726Y26075D01*
D02*
G37*
G36*
X6096Y26224D02*
X5801Y26195D01*
X5517Y26109D01*
X5255Y25969D01*
X5026Y25781D01*
X4837Y25551D01*
X4698Y25290D01*
X4611Y25006D01*
X4582Y24710D01*
X4611Y24415D01*
X4698Y24131D01*
X4837Y23869D01*
X5026Y23640D01*
X5255Y23452D01*
X5517Y23312D01*
X5801Y23226D01*
X6096Y23197D01*
X6391Y23226D01*
X6675Y23312D01*
X6937Y23452D01*
X7166Y23640D01*
X7355Y23869D01*
X7494Y24131D01*
X7581Y24415D01*
X7610Y24710D01*
X7581Y25006D01*
X7494Y25290D01*
X7355Y25551D01*
X7166Y25781D01*
X6937Y25969D01*
X6675Y26109D01*
X6391Y26195D01*
X6096Y26224D01*
D02*
G37*
G36*
X16660Y23666D02*
X16358Y23627D01*
X16077Y23510D01*
X15835Y23325D01*
X15650Y23083D01*
X15533Y22802D01*
X15494Y22500D01*
X15533Y22198D01*
X15650Y21917D01*
X15835Y21675D01*
X16077Y21490D01*
X16358Y21373D01*
X16660Y21334D01*
X16962Y21373D01*
X17243Y21490D01*
X17485Y21675D01*
X17670Y21917D01*
X17787Y22198D01*
X17826Y22500D01*
X17787Y22802D01*
X17670Y23083D01*
X17485Y23325D01*
X17243Y23510D01*
X16962Y23627D01*
X16660Y23666D01*
D02*
G37*
G36*
X87218Y23705D02*
X85812D01*
X85109Y23002D01*
Y21596D01*
X85812Y20892D01*
X87218D01*
X87921Y21596D01*
Y23002D01*
X87218Y23705D01*
D02*
G37*
G36*
X70548D02*
X69142D01*
X68439Y23002D01*
Y21596D01*
X69142Y20892D01*
X70548D01*
X71251Y21596D01*
Y23002D01*
X70548Y23705D01*
D02*
G37*
G36*
X53878D02*
X52472D01*
X51769Y23002D01*
Y21596D01*
X52472Y20892D01*
X53878D01*
X54581Y21596D01*
Y23002D01*
X53878Y23705D01*
D02*
G37*
G36*
X37278D02*
X35872D01*
X35169Y23002D01*
Y21596D01*
X35872Y20892D01*
X37278D01*
X37981Y21596D01*
Y23002D01*
X37278Y23705D01*
D02*
G37*
G36*
X20538D02*
X19132D01*
X18429Y23002D01*
Y21596D01*
X19132Y20892D01*
X20538D01*
X21241Y21596D01*
Y23002D01*
X20538Y23705D01*
D02*
G37*
G36*
X11811Y39530D02*
X11572Y39499D01*
X11350Y39407D01*
X11159Y39260D01*
X11012Y39069D01*
X10920Y38847D01*
X10889Y38608D01*
X10920Y38369D01*
X11012Y38147D01*
X11159Y37956D01*
X11196Y37927D01*
Y23966D01*
X11244Y23728D01*
X11378Y23526D01*
X12079Y22826D01*
Y21596D01*
X12782Y20892D01*
X14188D01*
X14891Y21596D01*
Y23002D01*
X14188Y23705D01*
X12958D01*
X12440Y24223D01*
Y26798D01*
X12548Y26844D01*
X12567Y26844D01*
X14860D01*
Y29156D01*
X12567D01*
X12548Y29156D01*
X12440Y29202D01*
Y37938D01*
X12463Y37956D01*
X12610Y38147D01*
X12702Y38369D01*
X12733Y38608D01*
X12702Y38847D01*
X12610Y39069D01*
X12463Y39260D01*
X12272Y39407D01*
X12050Y39499D01*
X11811Y39530D01*
D02*
G37*
G36*
X6096Y21216D02*
X5801Y21187D01*
X5517Y21101D01*
X5255Y20961D01*
X5026Y20773D01*
X4837Y20544D01*
X4698Y20282D01*
X4611Y19998D01*
X4582Y19703D01*
X4611Y19407D01*
X4698Y19124D01*
X4837Y18862D01*
X5026Y18632D01*
X5255Y18444D01*
X5517Y18304D01*
X5801Y18218D01*
X6096Y18189D01*
X6391Y18218D01*
X6675Y18304D01*
X6937Y18444D01*
X7166Y18632D01*
X7355Y18862D01*
X7494Y19124D01*
X7581Y19407D01*
X7610Y19703D01*
X7581Y19998D01*
X7494Y20282D01*
X7355Y20544D01*
X7166Y20773D01*
X6937Y20961D01*
X6675Y21101D01*
X6391Y21187D01*
X6096Y21216D01*
D02*
G37*
G36*
X93726Y21072D02*
X93431Y21043D01*
X93147Y20956D01*
X92885Y20817D01*
X92656Y20628D01*
X92467Y20399D01*
X92328Y20137D01*
X92241Y19853D01*
X92212Y19558D01*
X92241Y19263D01*
X92328Y18979D01*
X92467Y18717D01*
X92656Y18488D01*
X92885Y18299D01*
X93147Y18160D01*
X93431Y18073D01*
X93726Y18044D01*
X94021Y18073D01*
X94305Y18160D01*
X94567Y18299D01*
X94796Y18488D01*
X94985Y18717D01*
X95124Y18979D01*
X95211Y19263D01*
X95240Y19558D01*
X95211Y19853D01*
X95124Y20137D01*
X94985Y20399D01*
X94796Y20628D01*
X94567Y20817D01*
X94305Y20956D01*
X94021Y21043D01*
X93726Y21072D01*
D02*
G37*
G36*
X13612Y19102D02*
Y17981D01*
X14733D01*
X14707Y18181D01*
X14580Y18486D01*
X14379Y18748D01*
X14117Y18949D01*
X13812Y19075D01*
X13612Y19102D01*
D02*
G37*
G36*
X13358D02*
X13158Y19075D01*
X12853Y18949D01*
X12591Y18748D01*
X12390Y18486D01*
X12263Y18181D01*
X12237Y17981D01*
X13358D01*
Y19102D01*
D02*
G37*
G36*
X19962D02*
Y17981D01*
X21083D01*
X21057Y18181D01*
X20930Y18486D01*
X20729Y18748D01*
X20467Y18949D01*
X20162Y19075D01*
X19962Y19102D01*
D02*
G37*
G36*
X19708D02*
X19508Y19075D01*
X19203Y18949D01*
X18941Y18748D01*
X18740Y18486D01*
X18613Y18181D01*
X18587Y17981D01*
X19708D01*
Y19102D01*
D02*
G37*
G36*
X21083Y17727D02*
X19962D01*
Y16606D01*
X20162Y16632D01*
X20467Y16758D01*
X20729Y16959D01*
X20930Y17221D01*
X21057Y17526D01*
X21083Y17727D01*
D02*
G37*
G36*
X14733Y17727D02*
X13612D01*
Y16606D01*
X13812Y16632D01*
X14117Y16758D01*
X14379Y16959D01*
X14580Y17221D01*
X14707Y17526D01*
X14733Y17727D01*
D02*
G37*
G36*
X13358D02*
X12237D01*
X12263Y17526D01*
X12390Y17221D01*
X12591Y16959D01*
X12853Y16758D01*
X13158Y16632D01*
X13358Y16606D01*
Y17727D01*
D02*
G37*
G36*
X19708Y17727D02*
X18587D01*
X18613Y17526D01*
X18740Y17221D01*
X18941Y16959D01*
X19203Y16758D01*
X19508Y16632D01*
X19708Y16606D01*
Y17727D01*
D02*
G37*
G36*
X86515Y19272D02*
X86148Y19224D01*
X85806Y19082D01*
X85512Y18857D01*
X85287Y18563D01*
X85145Y18221D01*
X85096Y17854D01*
X85145Y17487D01*
X85287Y17144D01*
X85512Y16851D01*
X85806Y16625D01*
X86148Y16483D01*
X86515Y16435D01*
X86882Y16483D01*
X87224Y16625D01*
X87518Y16851D01*
X87743Y17144D01*
X87885Y17487D01*
X87934Y17854D01*
X87885Y18221D01*
X87743Y18563D01*
X87518Y18857D01*
X87224Y19082D01*
X86882Y19224D01*
X86515Y19272D01*
D02*
G37*
G36*
X69845D02*
X69478Y19224D01*
X69136Y19082D01*
X68842Y18857D01*
X68617Y18563D01*
X68475Y18221D01*
X68426Y17854D01*
X68475Y17487D01*
X68617Y17144D01*
X68842Y16851D01*
X69136Y16625D01*
X69478Y16483D01*
X69845Y16435D01*
X70212Y16483D01*
X70554Y16625D01*
X70848Y16851D01*
X71073Y17144D01*
X71215Y17487D01*
X71264Y17854D01*
X71215Y18221D01*
X71073Y18563D01*
X70848Y18857D01*
X70554Y19082D01*
X70212Y19224D01*
X69845Y19272D01*
D02*
G37*
G36*
X53175D02*
X52808Y19224D01*
X52466Y19082D01*
X52172Y18857D01*
X51947Y18563D01*
X51805Y18221D01*
X51756Y17854D01*
X51805Y17487D01*
X51947Y17144D01*
X52172Y16851D01*
X52466Y16625D01*
X52808Y16483D01*
X53175Y16435D01*
X53542Y16483D01*
X53884Y16625D01*
X54178Y16851D01*
X54403Y17144D01*
X54545Y17487D01*
X54594Y17854D01*
X54545Y18221D01*
X54403Y18563D01*
X54178Y18857D01*
X53884Y19082D01*
X53542Y19224D01*
X53175Y19272D01*
D02*
G37*
G36*
X36575D02*
X36208Y19224D01*
X35866Y19082D01*
X35572Y18857D01*
X35347Y18563D01*
X35205Y18221D01*
X35156Y17854D01*
X35205Y17487D01*
X35347Y17144D01*
X35572Y16851D01*
X35866Y16625D01*
X36208Y16483D01*
X36575Y16435D01*
X36942Y16483D01*
X37284Y16625D01*
X37578Y16851D01*
X37803Y17144D01*
X37945Y17487D01*
X37994Y17854D01*
X37945Y18221D01*
X37803Y18563D01*
X37578Y18857D01*
X37284Y19082D01*
X36942Y19224D01*
X36575Y19272D01*
D02*
G37*
G36*
X6096Y16216D02*
X5801Y16187D01*
X5517Y16101D01*
X5255Y15961D01*
X5026Y15773D01*
X4837Y15544D01*
X4698Y15282D01*
X4611Y14998D01*
X4582Y14703D01*
X4611Y14407D01*
X4698Y14124D01*
X4837Y13862D01*
X5026Y13632D01*
X5255Y13444D01*
X5517Y13304D01*
X5801Y13218D01*
X6096Y13189D01*
X6391Y13218D01*
X6675Y13304D01*
X6937Y13444D01*
X7166Y13632D01*
X7355Y13862D01*
X7494Y14124D01*
X7581Y14407D01*
X7610Y14703D01*
X7581Y14998D01*
X7494Y15282D01*
X7355Y15544D01*
X7166Y15773D01*
X6937Y15961D01*
X6675Y16101D01*
X6391Y16187D01*
X6096Y16216D01*
D02*
G37*
G36*
X93726Y16072D02*
X93431Y16043D01*
X93147Y15956D01*
X92885Y15817D01*
X92656Y15628D01*
X92467Y15399D01*
X92328Y15137D01*
X92241Y14853D01*
X92212Y14558D01*
X92241Y14263D01*
X92328Y13979D01*
X92467Y13717D01*
X92656Y13488D01*
X92885Y13299D01*
X93147Y13160D01*
X93431Y13073D01*
X93726Y13044D01*
X94021Y13073D01*
X94305Y13160D01*
X94567Y13299D01*
X94796Y13488D01*
X94985Y13717D01*
X95124Y13979D01*
X95211Y14263D01*
X95240Y14558D01*
X95211Y14853D01*
X95124Y15137D01*
X94985Y15399D01*
X94796Y15628D01*
X94567Y15817D01*
X94305Y15956D01*
X94021Y16043D01*
X93726Y16072D01*
D02*
G37*
G36*
X6096Y11213D02*
X5801Y11184D01*
X5517Y11097D01*
X5255Y10958D01*
X5026Y10769D01*
X4837Y10540D01*
X4698Y10278D01*
X4611Y9994D01*
X4582Y9699D01*
X4611Y9404D01*
X4698Y9120D01*
X4837Y8858D01*
X5026Y8629D01*
X5255Y8440D01*
X5517Y8301D01*
X5801Y8214D01*
X6096Y8185D01*
X6391Y8214D01*
X6675Y8301D01*
X6937Y8440D01*
X7166Y8629D01*
X7355Y8858D01*
X7494Y9120D01*
X7581Y9404D01*
X7610Y9699D01*
X7581Y9994D01*
X7494Y10278D01*
X7355Y10540D01*
X7166Y10769D01*
X6937Y10958D01*
X6675Y11097D01*
X6391Y11184D01*
X6096Y11213D01*
D02*
G37*
G36*
X57785Y7572D02*
Y6350D01*
X59007D01*
X58977Y6576D01*
X58841Y6906D01*
X58624Y7189D01*
X58341Y7406D01*
X58011Y7542D01*
X57785Y7572D01*
D02*
G37*
G36*
X47498D02*
Y6350D01*
X48720D01*
X48690Y6576D01*
X48554Y6906D01*
X48337Y7189D01*
X48054Y7406D01*
X47724Y7542D01*
X47498Y7572D01*
D02*
G37*
G36*
X57531D02*
X57305Y7542D01*
X56975Y7406D01*
X56692Y7189D01*
X56475Y6906D01*
X56339Y6576D01*
X56309Y6350D01*
X57531D01*
Y7572D01*
D02*
G37*
G36*
X47244D02*
X47018Y7542D01*
X46688Y7406D01*
X46405Y7189D01*
X46188Y6906D01*
X46052Y6576D01*
X46022Y6350D01*
X47244D01*
Y7572D01*
D02*
G37*
G36*
X59007Y6096D02*
X57785D01*
Y4874D01*
X58011Y4904D01*
X58341Y5040D01*
X58624Y5257D01*
X58841Y5540D01*
X58977Y5870D01*
X59007Y6096D01*
D02*
G37*
G36*
X48720D02*
X47498D01*
Y4874D01*
X47724Y4904D01*
X48054Y5040D01*
X48337Y5257D01*
X48554Y5540D01*
X48690Y5870D01*
X48720Y6096D01*
D02*
G37*
G36*
X57531D02*
X56309D01*
X56339Y5870D01*
X56475Y5540D01*
X56692Y5257D01*
X56975Y5040D01*
X57305Y4904D01*
X57531Y4874D01*
Y6096D01*
D02*
G37*
G36*
X47244D02*
X46022D01*
X46052Y5870D01*
X46188Y5540D01*
X46405Y5257D01*
X46688Y5040D01*
X47018Y4904D01*
X47244Y4874D01*
Y6096D01*
D02*
G37*
G36*
X52658Y7737D02*
X52363Y7708D01*
X52079Y7621D01*
X51817Y7482D01*
X51588Y7293D01*
X51399Y7064D01*
X51260Y6802D01*
X51173Y6518D01*
X51144Y6223D01*
X51173Y5928D01*
X51260Y5644D01*
X51399Y5382D01*
X51588Y5153D01*
X51817Y4964D01*
X52079Y4825D01*
X52363Y4738D01*
X52658Y4709D01*
X52953Y4738D01*
X53237Y4825D01*
X53499Y4964D01*
X53728Y5153D01*
X53917Y5382D01*
X54056Y5644D01*
X54143Y5928D01*
X54172Y6223D01*
X54143Y6518D01*
X54056Y6802D01*
X53917Y7064D01*
X53728Y7293D01*
X53499Y7482D01*
X53237Y7621D01*
X52953Y7708D01*
X52658Y7737D01*
D02*
G37*
G36*
X42371D02*
X42076Y7708D01*
X41792Y7621D01*
X41530Y7482D01*
X41301Y7293D01*
X41112Y7064D01*
X40973Y6802D01*
X40886Y6518D01*
X40857Y6223D01*
X40886Y5928D01*
X40973Y5644D01*
X41112Y5382D01*
X41301Y5153D01*
X41530Y4964D01*
X41792Y4825D01*
X42076Y4738D01*
X42371Y4709D01*
X42666Y4738D01*
X42950Y4825D01*
X43212Y4964D01*
X43441Y5153D01*
X43630Y5382D01*
X43769Y5644D01*
X43856Y5928D01*
X43885Y6223D01*
X43856Y6518D01*
X43769Y6802D01*
X43630Y7064D01*
X43441Y7293D01*
X43212Y7482D01*
X42950Y7621D01*
X42666Y7708D01*
X42371Y7737D01*
D02*
G37*
G36*
X6096Y6213D02*
X5801Y6184D01*
X5517Y6097D01*
X5255Y5958D01*
X5026Y5769D01*
X4837Y5540D01*
X4698Y5278D01*
X4611Y4994D01*
X4582Y4699D01*
X4611Y4404D01*
X4698Y4120D01*
X4837Y3858D01*
X5026Y3629D01*
X5255Y3440D01*
X5517Y3301D01*
X5801Y3214D01*
X6096Y3185D01*
X6391Y3214D01*
X6675Y3301D01*
X6937Y3440D01*
X7166Y3629D01*
X7355Y3858D01*
X7494Y4120D01*
X7581Y4404D01*
X7610Y4699D01*
X7581Y4994D01*
X7494Y5278D01*
X7355Y5540D01*
X7166Y5769D01*
X6937Y5958D01*
X6675Y6097D01*
X6391Y6184D01*
X6096Y6213D01*
D02*
G37*
%LPD*%
G36*
X87740Y34400D02*
X87931Y34253D01*
X88153Y34161D01*
X88241Y34150D01*
X88233Y34023D01*
X83607D01*
X83583Y34053D01*
X83392Y34200D01*
X83170Y34292D01*
X83082Y34303D01*
X83090Y34430D01*
X87716D01*
X87740Y34400D01*
D02*
G37*
%LPC*%
G36*
X25781Y3790D02*
Y2921D01*
X26650D01*
X26632Y3056D01*
X26531Y3300D01*
X26370Y3510D01*
X26160Y3671D01*
X25916Y3772D01*
X25781Y3790D01*
D02*
G37*
G36*
X25527D02*
X25392Y3772D01*
X25148Y3671D01*
X24938Y3510D01*
X24777Y3300D01*
X24676Y3056D01*
X24658Y2921D01*
X25527D01*
Y3790D01*
D02*
G37*
G36*
X26650Y2667D02*
X25781D01*
Y1798D01*
X25916Y1816D01*
X26160Y1917D01*
X26370Y2078D01*
X26531Y2288D01*
X26632Y2532D01*
X26650Y2667D01*
D02*
G37*
G36*
X25527D02*
X24658D01*
X24676Y2532D01*
X24777Y2288D01*
X24938Y2078D01*
X25148Y1917D01*
X25392Y1816D01*
X25527Y1798D01*
Y2667D01*
D02*
G37*
%LPD*%
D96*
X28702Y85598D02*
X68961D01*
X24130Y81026D02*
X28702Y85598D01*
X24130Y77343D02*
Y81026D01*
X28956Y84328D02*
X67564D01*
X25146Y80518D02*
X28956Y84328D01*
X25146Y76073D02*
Y80518D01*
X24003Y75438D02*
X24511D01*
X25146Y76073D01*
X83821Y79120D02*
X84074Y78867D01*
X67564Y84328D02*
X78613D01*
X83821Y79120D01*
X84074Y78867D02*
X86614D01*
X79629Y85598D02*
X84265Y80963D01*
X68961Y85598D02*
X79629D01*
X48260Y93091D02*
X48324Y93155D01*
X71564D01*
X71628Y93218D01*
D97*
X25400Y16891D02*
X26035Y16256D01*
X25400Y59817D02*
X25400Y16891D01*
X22733Y62484D02*
X25400Y59817D01*
X22733Y62484D02*
Y75946D01*
X32639Y2032D02*
X91208D01*
X29972Y4699D02*
X32639Y2032D01*
X23876Y4699D02*
X29972D01*
X91208Y2032D02*
X93726Y4550D01*
X93472Y1016D02*
X96139Y3683D01*
X21336Y1016D02*
X93472D01*
X20574Y1778D02*
X21336Y1016D01*
X93654Y4623D02*
X93726Y4550D01*
X96139Y3683D02*
Y7137D01*
X93726Y9550D02*
X96139Y7137D01*
X24003Y75381D02*
Y75438D01*
X31750Y72644D02*
X39370D01*
X29591Y77089D02*
X44831D01*
X45974Y78232D01*
X29210Y76708D02*
X29591Y77089D01*
X39878Y78232D02*
X44069Y82423D01*
X47117D01*
X39370Y72644D02*
X67437D01*
X74041Y66040D01*
X45974Y78232D02*
X51689D01*
X17272Y15367D02*
X33528D01*
X26416Y17181D02*
Y34544D01*
Y17181D02*
X27305Y16292D01*
X20574Y1778D02*
Y2794D01*
X33528Y15367D02*
X49911D01*
Y17411D01*
X25019Y64008D02*
X41402Y47625D01*
Y47498D02*
Y47625D01*
X42926Y70447D02*
Y70612D01*
Y70447D02*
X43434Y69939D01*
Y41413D02*
Y69939D01*
X28829Y26808D02*
X43434Y41413D01*
X28829Y26670D02*
Y26808D01*
X42545Y43516D02*
Y68453D01*
X27432Y28403D02*
X42545Y43516D01*
X69784Y22360D02*
X69845Y22299D01*
X48705Y18795D02*
Y28092D01*
X22352Y52959D02*
Y53213D01*
X14986Y45593D02*
X22352Y52959D01*
X23241Y16256D02*
Y58959D01*
X17938Y64262D02*
X23241Y58959D01*
X27305Y53340D02*
Y57912D01*
X27432Y58039D01*
Y25527D02*
Y28403D01*
X27305Y16256D02*
Y16292D01*
X24130Y63119D02*
X39243Y48006D01*
X21971Y16256D02*
X22352Y16637D01*
X16660Y15979D02*
X17272Y15367D01*
X22352Y16637D02*
Y42037D01*
X20828Y43561D02*
X22352Y42037D01*
X77597Y36195D02*
X84201D01*
X76581Y35179D02*
X77597Y36195D01*
X51245Y27975D02*
Y28092D01*
X78867Y35052D02*
X88392D01*
X89887Y33401D02*
X93726Y29562D01*
X82931Y33401D02*
X89887D01*
X82070Y18770D02*
X83340Y17500D01*
X82070Y18770D02*
Y28000D01*
X83340Y26730D02*
X84610Y28000D01*
X83340Y22500D02*
Y26730D01*
X16660Y15979D02*
Y17500D01*
X33400Y26800D02*
X34600Y28000D01*
X33400Y22500D02*
Y26800D01*
X51245Y27975D02*
X51270Y28000D01*
X50000Y26730D02*
X51245Y27975D01*
X50000Y22500D02*
Y26730D01*
X66670Y26730D02*
X67940Y28000D01*
X66670Y22500D02*
Y26730D01*
X65400Y18770D02*
Y28000D01*
Y18770D02*
X66670Y17500D01*
X11818Y23966D02*
Y38601D01*
Y23966D02*
X13485Y22299D01*
X33400Y15495D02*
X33528Y15367D01*
X33400Y15495D02*
Y17500D01*
X32060Y18840D02*
X33400Y17500D01*
X32060Y18840D02*
Y28000D01*
X11811Y38608D02*
X11818Y38601D01*
X24130Y63119D02*
Y71374D01*
X74041Y66040D02*
X96393D01*
X25019Y64008D02*
Y69469D01*
X8128Y75565D02*
X12737Y70956D01*
X15320D01*
X3135Y75565D02*
X8128D01*
X29210Y74422D02*
Y76708D01*
X93015Y25273D02*
X93726Y24562D01*
X18288Y50546D02*
Y53086D01*
X6096Y38354D02*
X18288Y50546D01*
X6096Y35179D02*
Y38354D01*
X14986Y43180D02*
Y45593D01*
X14351Y69088D02*
X24257Y59182D01*
X24257Y16764D01*
X24765Y16256D01*
X23114Y3937D02*
X23876Y4699D01*
X23114Y2794D02*
Y3937D01*
X49530Y89662D02*
X51141Y91273D01*
X86106D01*
X16383Y64262D02*
X17938D01*
X22733Y75946D02*
X24130Y77343D01*
X16383Y69977D02*
Y73787D01*
X4445Y85725D02*
X16383Y73787D01*
X3175Y85725D02*
X4445D01*
X48705Y18795D02*
X50000Y17500D01*
X49911Y17411D02*
X50000Y17500D01*
D98*
X62992Y51435D02*
X65400Y49027D01*
Y37846D02*
Y49027D01*
Y28000D02*
Y37846D01*
X65527Y37973D02*
X75946D01*
X65400Y37846D02*
X65527Y37973D01*
X75946D02*
X85788D01*
X93726D01*
D99*
X93980Y75311D02*
X94014Y75345D01*
X94903D01*
X94996Y75438D01*
X93472Y75311D02*
X93980D01*
X81280Y87503D02*
X93472Y75311D01*
X94996Y75438D02*
X97536D01*
X25527Y87503D02*
X81280D01*
X20193Y82169D02*
X25527Y87503D01*
D101*
X24384Y92710D02*
D03*
X19384D02*
D03*
X47371Y6223D02*
D03*
X42371D02*
D03*
X57658D02*
D03*
X52658D02*
D03*
X6096Y24710D02*
D03*
Y29710D02*
D03*
Y14703D02*
D03*
Y19703D02*
D03*
Y9699D02*
D03*
Y4699D02*
D03*
X93726Y29562D02*
D03*
Y24562D02*
D03*
Y14558D02*
D03*
Y19558D02*
D03*
Y4550D02*
D03*
Y9550D02*
D03*
D102*
X96647Y66040D02*
D03*
X97536Y72898D02*
D03*
X3135Y75565D02*
D03*
D103*
X96647Y68580D02*
D03*
X94996Y75438D02*
D03*
X97536D02*
D03*
X94996Y72898D02*
D03*
X6096Y35179D02*
D03*
X8636D02*
D03*
X15113Y82169D02*
D03*
X20574Y2794D02*
D03*
X23114D02*
D03*
X25654D02*
D03*
X52451Y34798D02*
D03*
X49911D02*
D03*
X83340Y22500D02*
D03*
Y17500D02*
D03*
X66670Y22500D02*
D03*
Y17500D02*
D03*
X50000Y22500D02*
D03*
Y17500D02*
D03*
X33400Y22500D02*
D03*
Y17500D02*
D03*
X16660Y22500D02*
D03*
Y17500D02*
D03*
X3135Y85725D02*
D03*
Y83185D02*
D03*
Y80645D02*
D03*
Y78105D02*
D03*
D104*
X3556Y35179D02*
D03*
X28194Y2794D02*
D03*
X47371Y34798D02*
D03*
D105*
X16244Y28000D02*
D03*
D03*
X34600D02*
D03*
X51270D02*
D03*
X67940D02*
D03*
X84610D02*
D03*
D106*
X18784D02*
D03*
X13704D02*
D03*
X32060D02*
D03*
X48730D02*
D03*
X65400D02*
D03*
X82070D02*
D03*
D107*
X50038Y12827D02*
D03*
X92710Y91440D02*
D03*
X83820Y9144D02*
D03*
X10160Y91440D02*
D03*
X12700Y13843D02*
D03*
D108*
X39370Y72644D02*
D03*
Y65024D02*
D03*
Y75184D02*
D03*
Y70104D02*
D03*
Y67564D02*
D03*
X31750D02*
D03*
Y65024D02*
D03*
Y70104D02*
D03*
Y72644D02*
D03*
D109*
Y75184D02*
D03*
D110*
X43652Y79665D02*
D03*
X47244Y76073D02*
D03*
D111*
X20193Y82169D02*
D03*
D112*
X80162Y56286D02*
D03*
X60137Y56261D02*
D03*
D113*
X86515Y17854D02*
D03*
X80165D02*
D03*
X69845D02*
D03*
X63495D02*
D03*
X53175D02*
D03*
X46825D02*
D03*
X36575D02*
D03*
X30225D02*
D03*
X19835D02*
D03*
X13485D02*
D03*
D114*
X86515Y22299D02*
D03*
X80165D02*
D03*
X69845D02*
D03*
X63495D02*
D03*
X53175D02*
D03*
X46825D02*
D03*
X36575D02*
D03*
X30225D02*
D03*
X19835D02*
D03*
X13485D02*
D03*
D115*
X86106Y86273D02*
D03*
X83606Y88773D02*
D03*
X86106Y91273D02*
D03*
D116*
X83668Y96774D02*
D03*
X50648D02*
D03*
X53188Y96774D02*
D03*
X55728D02*
D03*
X58268Y96774D02*
D03*
X60808D02*
D03*
X63348D02*
D03*
X65888D02*
D03*
X68428D02*
D03*
X70968D02*
D03*
X73508D02*
D03*
X76048D02*
D03*
X78588D02*
D03*
X81128D02*
D03*
X86208Y96774D02*
D03*
D117*
X88748Y96774D02*
D03*
D118*
X3241Y41774D02*
D03*
X96241Y41774D02*
D03*
X3241Y96774D02*
D03*
X96241Y96774D02*
D03*
D119*
X79248Y68199D02*
D03*
X76708D02*
D03*
D120*
X66294Y59563D02*
D03*
X72898Y53848D02*
D03*
X71120Y59055D02*
D03*
X72771Y25527D02*
D03*
X76454Y26416D02*
D03*
X77597Y27940D02*
D03*
X70485Y28448D02*
D03*
X88900Y16764D02*
D03*
X90043Y34798D02*
D03*
X94996Y33909D02*
D03*
X98298Y54610D02*
D03*
X93218Y54102D02*
D03*
X94615Y83439D02*
D03*
X98679Y77978D02*
D03*
X93980Y77724D02*
D03*
X94361Y67945D02*
D03*
X87884Y67437D02*
D03*
X92329Y69977D02*
D03*
X88138Y70866D02*
D03*
X82042Y71374D02*
D03*
X89408Y76835D02*
D03*
X93853Y64516D02*
D03*
X96266Y63754D02*
D03*
X97917Y63246D02*
D03*
X88138Y51308D02*
D03*
X86995Y57531D02*
D03*
X86741Y64643D02*
D03*
X83566Y64516D02*
D03*
X82931Y58801D02*
D03*
X81915Y52705D02*
D03*
X65024Y52070D02*
D03*
X64643Y66802D02*
D03*
X72771Y64643D02*
D03*
X58293Y69342D02*
D03*
X66675Y70739D02*
D03*
X61468Y71247D02*
D03*
X65913Y76073D02*
D03*
X71120Y75565D02*
D03*
X68453Y73533D02*
D03*
X61976Y74168D02*
D03*
X58293Y74041D02*
D03*
X53467Y73914D02*
D03*
X51689Y75692D02*
D03*
X53467Y78105D02*
D03*
X64389Y78740D02*
D03*
X74930Y72263D02*
D03*
Y77470D02*
D03*
X81280Y76073D02*
D03*
X81026Y77597D02*
D03*
X80518Y80518D02*
D03*
X76581Y80772D02*
D03*
X78994Y81407D02*
D03*
X88138Y83566D02*
D03*
X84201Y86868D02*
D03*
X82042Y88773D02*
D03*
X89408Y86106D02*
D03*
X97917Y87503D02*
D03*
X89281Y90678D02*
D03*
X87757Y94488D02*
D03*
X97917Y92329D02*
D03*
X91694Y97155D02*
D03*
X82423Y98425D02*
D03*
X77216Y98425D02*
D03*
X72390Y98425D02*
D03*
X67183D02*
D03*
X62103Y98552D02*
D03*
X57023D02*
D03*
X51816D02*
D03*
X79756Y93599D02*
D03*
X82296Y93853D02*
D03*
X84836Y93980D02*
D03*
X60325Y82550D02*
D03*
X54483D02*
D03*
X28575Y92964D02*
D03*
X47625Y98171D02*
D03*
X41148Y97663D02*
D03*
X33401Y97917D02*
D03*
X10795Y94742D02*
D03*
X20955Y40640D02*
D03*
X15240Y41656D02*
D03*
X8128Y42799D02*
D03*
X6477Y44196D02*
D03*
X17526Y42164D02*
D03*
X13843Y39497D02*
D03*
X17653Y36322D02*
D03*
X18161Y32385D02*
D03*
X4699Y32893D02*
D03*
X5080Y27178D02*
D03*
X8001Y33020D02*
D03*
X10414Y31623D02*
D03*
X10287Y26416D02*
D03*
X5334Y22225D02*
D03*
X10795Y22606D02*
D03*
X15494Y2032D02*
D03*
X8636Y7493D02*
D03*
X11303Y1905D02*
D03*
X4953Y1778D02*
D03*
X4699Y6858D02*
D03*
X4572Y12192D02*
D03*
X5334Y17526D02*
D03*
X9271Y16891D02*
D03*
X17272Y13716D02*
D03*
X15875Y14478D02*
D03*
X13081Y7239D02*
D03*
X18161Y10668D02*
D03*
X18415Y8636D02*
D03*
X21463Y12065D02*
D03*
X21717Y13716D02*
D03*
X41275Y13843D02*
D03*
X37084Y10414D02*
D03*
X33528Y13843D02*
D03*
Y7874D02*
D03*
X30734Y10922D02*
D03*
X53975Y13716D02*
D03*
X47498D02*
D03*
X55372Y26289D02*
D03*
X59690Y26670D02*
D03*
X56007Y30607D02*
D03*
X41148Y25781D02*
D03*
X35179Y24257D02*
D03*
X38989Y22352D02*
D03*
X44577D02*
D03*
X45085Y19304D02*
D03*
X38608D02*
D03*
X28194D02*
D03*
X27940Y22225D02*
D03*
Y23622D02*
D03*
X30480Y25781D02*
D03*
X37338Y28448D02*
D03*
X46609Y28575D02*
D03*
X61341Y19304D02*
D03*
X55245D02*
D03*
X55626Y22352D02*
D03*
X46736Y25400D02*
D03*
X51435Y24384D02*
D03*
X63373Y30353D02*
D03*
X63754Y24765D02*
D03*
X61087Y22352D02*
D03*
X72136Y22225D02*
D03*
X68326Y24765D02*
D03*
X67183Y30226D02*
D03*
X98679Y33528D02*
D03*
X80264Y24638D02*
D03*
X81026Y30099D02*
D03*
X84836Y31623D02*
D03*
X86741Y36195D02*
D03*
X92456Y36068D02*
D03*
X92964Y45466D02*
D03*
X98298Y45593D02*
D03*
X98171Y37719D02*
D03*
X91948Y40513D02*
D03*
X86487Y48514D02*
D03*
X89027Y46355D02*
D03*
X84582Y46101D02*
D03*
X81534Y46609D02*
D03*
X88011Y42037D02*
D03*
X84582Y39878D02*
D03*
X80645D02*
D03*
X56388Y43307D02*
D03*
X71628D02*
D03*
X77216Y45974D02*
D03*
X66929Y46101D02*
D03*
X77470Y39878D02*
D03*
X66675Y39751D02*
D03*
X66929Y36322D02*
D03*
X73279Y36576D02*
D03*
X72517Y34417D02*
D03*
X63500Y45974D02*
D03*
X48895Y44450D02*
D03*
X53848Y39370D02*
D03*
X63373Y38862D02*
D03*
Y34798D02*
D03*
X54356Y35687D02*
D03*
X50927Y37973D02*
D03*
X47244Y41656D02*
D03*
X60706Y61341D02*
D03*
X55626Y58039D02*
D03*
X45339Y60833D02*
D03*
X48895Y57023D02*
D03*
X52451Y63881D02*
D03*
X45212Y64389D02*
D03*
X61341Y51816D02*
D03*
X44831Y51689D02*
D03*
X40132Y55753D02*
D03*
X35052Y60833D02*
D03*
X35560Y58039D02*
D03*
X37338Y57658D02*
D03*
X40132Y61468D02*
D03*
X28194Y46355D02*
D03*
X32639Y48641D02*
D03*
X32893Y43815D02*
D03*
X29972Y40005D02*
D03*
X26543Y51816D02*
D03*
X26797Y36322D02*
D03*
X43307Y32258D02*
D03*
X51054Y33401D02*
D03*
X51181Y31242D02*
D03*
X34290Y30099D02*
D03*
X37465Y33401D02*
D03*
X43815Y37592D02*
D03*
X36576Y40132D02*
D03*
X33020Y36322D02*
D03*
X40386Y36195D02*
D03*
X48387Y36703D02*
D03*
X44577Y40513D02*
D03*
X44958Y45339D02*
D03*
X40894Y43942D02*
D03*
X37592Y47498D02*
D03*
X28829Y53213D02*
D03*
X32131D02*
D03*
X41148Y52451D02*
D03*
X37592Y66294D02*
D03*
X33401Y66421D02*
D03*
X37465Y71247D02*
D03*
X44577D02*
D03*
X46609Y71120D02*
D03*
X41275Y75311D02*
D03*
X44704Y75438D02*
D03*
X40513Y80772D02*
D03*
X37973Y78486D02*
D03*
X36068Y82677D02*
D03*
X31242Y78486D02*
D03*
X31369Y82677D02*
D03*
X27305Y79502D02*
D03*
X22606Y78867D02*
D03*
X5588Y89789D02*
D03*
X17780Y90170D02*
D03*
X33401Y93853D02*
D03*
X30226Y90170D02*
D03*
X26035Y89281D02*
D03*
X22479Y87376D02*
D03*
X22098Y94361D02*
D03*
X25908Y98171D02*
D03*
X16256Y98298D02*
D03*
X6858Y98552D02*
D03*
X18542Y85344D02*
D03*
X17018Y78613D02*
D03*
X15240Y76962D02*
D03*
X6858Y85344D02*
D03*
X4572Y93091D02*
D03*
Y87630D02*
D03*
X11938Y76200D02*
D03*
X5207Y82423D02*
D03*
X4826Y79375D02*
D03*
X9144Y76708D02*
D03*
X5334Y76835D02*
D03*
X78105Y22098D02*
D03*
X85852Y5461D02*
D03*
X78232Y19304D02*
D03*
X84963Y15875D02*
D03*
Y24384D02*
D03*
X88519Y27686D02*
D03*
X96647Y31242D02*
D03*
X94107Y27178D02*
D03*
X96139Y23241D02*
D03*
X92202Y22987D02*
D03*
X91440Y19050D02*
D03*
X95758Y16764D02*
D03*
X90932Y14986D02*
D03*
X96647Y1524D02*
D03*
Y9398D02*
D03*
X90932Y10922D02*
D03*
X93599Y7239D02*
D03*
X90678Y3683D02*
D03*
X74803Y3556D02*
D03*
X63754D02*
D03*
X70231Y10795D02*
D03*
X80899D02*
D03*
X61341D02*
D03*
X40894Y9271D02*
D03*
X45212Y9017D02*
D03*
X51054D02*
D03*
X54229Y9144D02*
D03*
X59436D02*
D03*
X55626Y4064D02*
D03*
X50038Y3937D02*
D03*
X44831Y4064D02*
D03*
X40386Y4953D02*
D03*
X30353Y2540D02*
D03*
X33528Y3302D02*
D03*
X32004Y4826D02*
D03*
X28702Y7493D02*
D03*
X28829Y13843D02*
D03*
X19304Y1270D02*
D03*
X18923Y3810D02*
D03*
X19177Y5715D02*
D03*
X21717Y5461D02*
D03*
X25908Y5969D02*
D03*
X24257Y7112D02*
D03*
X25908Y8763D02*
D03*
X32893Y58039D02*
D03*
X30861Y60198D02*
D03*
X26162Y67818D02*
D03*
X27940Y65913D02*
D03*
X28194Y62611D02*
D03*
X26289Y64643D02*
D03*
X27686Y68072D02*
D03*
X49022Y95377D02*
D03*
X51943Y95250D02*
D03*
X57023Y94996D02*
D03*
X59563Y94869D02*
D03*
X62230Y94615D02*
D03*
X67183Y94869D02*
D03*
X69850D02*
D03*
X72263D02*
D03*
X74549Y93853D02*
D03*
X71882Y89281D02*
D03*
X68072Y89535D02*
D03*
X39878Y78232D02*
D03*
X49911Y15367D02*
D03*
X41402Y47498D02*
D03*
X55372Y89281D02*
D03*
X22352Y53213D02*
D03*
X27305Y53340D02*
D03*
X27432Y25527D02*
D03*
X28829Y26670D02*
D03*
X26416Y34544D02*
D03*
X39243Y48006D02*
D03*
X21971Y16256D02*
D03*
X84201Y36195D02*
D03*
X76581Y35179D02*
D03*
X88392Y35052D02*
D03*
X78867D02*
D03*
X82931Y33401D02*
D03*
X51308Y70866D02*
D03*
X61468Y66802D02*
D03*
X54991Y67818D02*
D03*
X52324Y67183D02*
D03*
X46990Y66040D02*
D03*
X46863Y69342D02*
D03*
X78105Y73660D02*
D03*
Y70358D02*
D03*
X11811Y38608D02*
D03*
X10922Y40513D02*
D03*
X6985Y40894D02*
D03*
X17018Y39878D02*
D03*
X27432Y58039D02*
D03*
X62992Y51435D02*
D03*
X51689Y78232D02*
D03*
X42926Y70612D02*
D03*
X42545Y68453D02*
D03*
X25019Y69469D02*
D03*
X15320Y70956D02*
D03*
X29210Y74422D02*
D03*
X24130Y71374D02*
D03*
X47117Y82423D02*
D03*
X75946Y37973D02*
D03*
X93726D02*
D03*
X85788D02*
D03*
X27305Y16256D02*
D03*
X20828Y43561D02*
D03*
X49530Y89662D02*
D03*
X26035Y16256D02*
D03*
X24003Y75438D02*
D03*
X24130Y77343D02*
D03*
X14351Y69088D02*
D03*
X24765Y16256D02*
D03*
X23241D02*
D03*
X16383Y64262D02*
D03*
X14986Y43180D02*
D03*
X18288Y53086D02*
D03*
X16383Y69977D02*
D03*
X86614Y78867D02*
D03*
X67564Y84328D02*
D03*
X84265Y80963D02*
D03*
X68961Y85598D02*
D03*
X71628Y93218D02*
D03*
X48260Y93091D02*
D03*
D121*
X77978Y77724D02*
D03*
D122*
X76227Y72711D02*
D03*
D123*
X77962Y76776D02*
D03*
D124*
X78001Y72699D02*
D03*
M02*
