G04*
G04 #@! TF.GenerationSoftware,Altium Limited,Altium Designer,19.1.6 (110)*
G04*
G04 Layer_Color=32896*
%FSLAX43Y43*%
%MOMM*%
G71*
G01*
G75*
%ADD12C,0.254*%
%ADD14C,0.200*%
D12*
X19292Y29016D02*
G03*
X19292Y27263I-1798J-877D01*
G01*
X13196Y26984D02*
G03*
X13196Y28737I1798J877D01*
G01*
X31552Y26984D02*
G03*
X31552Y28737I1798J877D01*
G01*
X48222Y26984D02*
G03*
X48222Y28737I1798J877D01*
G01*
X64892Y26984D02*
G03*
X64892Y28737I1798J877D01*
G01*
X81562Y26984D02*
G03*
X81562Y28737I1798J877D01*
G01*
X84840Y20076D02*
G03*
X84840Y20076I-1500J0D01*
G01*
X68170D02*
G03*
X68170Y20076I-1500J0D01*
G01*
X51500D02*
G03*
X51500Y20076I-1500J0D01*
G01*
X34900D02*
G03*
X34900Y20076I-1500J0D01*
G01*
X18160D02*
G03*
X18160Y20076I-1500J0D01*
G01*
X19292Y27200D02*
X19292Y29016D01*
X13196Y26984D02*
X13196Y28800D01*
X31552Y26984D02*
X31552Y28800D01*
X48222Y26984D02*
X48222Y28800D01*
X64892Y26984D02*
X64892Y28800D01*
X81562Y26984D02*
X81562Y28800D01*
X81206Y17142D02*
X85397D01*
X80292Y19200D02*
Y20978D01*
X86363Y19225D02*
Y21003D01*
X81816Y22934D02*
X85245D01*
X81435D02*
X81816D01*
X64536Y17142D02*
X68727D01*
X63622Y19200D02*
Y20978D01*
X69693Y19225D02*
Y21003D01*
X65146Y22934D02*
X68575D01*
X64765D02*
X65146D01*
X47866Y17142D02*
X52057D01*
X46952Y19200D02*
Y20978D01*
X53023Y19225D02*
Y21003D01*
X48476Y22934D02*
X51905D01*
X48095D02*
X48476D01*
X31266Y17142D02*
X35457D01*
X30352Y19200D02*
Y20978D01*
X36423Y19225D02*
Y21003D01*
X31876Y22934D02*
X35305D01*
X31495D02*
X31876D01*
X14526Y17142D02*
X18717D01*
X13612Y19200D02*
Y20978D01*
X19683Y19225D02*
Y21003D01*
X15136Y22934D02*
X18565D01*
X14755D02*
X15136D01*
X737Y39370D02*
X98781D01*
X737D02*
Y99314D01*
X98781D01*
X88141Y56974D02*
Y82174D01*
X1241Y88974D02*
X98241D01*
X12141Y56974D02*
Y82174D01*
X88141D01*
X1241Y49574D02*
Y88974D01*
X12141Y56974D02*
X88141D01*
X98241Y49574D02*
Y88974D01*
X1241Y49574D02*
X98241D01*
X98741Y39274D02*
Y99274D01*
X737Y96774D02*
X737Y96774D01*
X75748Y75949D02*
Y78303D01*
X75758Y78343D02*
X80248D01*
Y75949D02*
Y78343D01*
X75748Y66949D02*
Y75949D01*
X80248Y66949D02*
Y75949D01*
X75748Y66949D02*
X80248D01*
X50546Y50419D02*
Y51943D01*
X51562D01*
X52070Y50419D02*
Y51943D01*
X52831D01*
X53085Y51689D01*
Y50673D01*
X52831Y50419D01*
X52070D01*
X54609D02*
X53593D01*
Y51181D01*
X54101Y50927D01*
X54355D01*
X54609Y51181D01*
Y51689D01*
X54355Y51943D01*
X53847D01*
X53593Y51689D01*
X16866Y32271D02*
Y30748D01*
X15850D01*
X15342Y32271D02*
Y30748D01*
X14580D01*
X14326Y31002D01*
Y32017D01*
X14580Y32271D01*
X15342D01*
X12803D02*
X13311Y32017D01*
X13819Y31510D01*
Y31002D01*
X13565Y30748D01*
X13057D01*
X12803Y31002D01*
Y31256D01*
X13057Y31510D01*
X13819D01*
D14*
X46101Y33528D02*
X53721D01*
X46101D02*
Y36068D01*
X53721D01*
Y33528D02*
Y36068D01*
M02*
