G04*
G04 #@! TF.GenerationSoftware,Altium Limited,Altium Designer,19.1.6 (110)*
G04*
G04 Layer_Color=255*
%FSLAX43Y43*%
%MOMM*%
G71*
G01*
G75*
%ADD22R,0.762X0.762*%
%ADD23R,0.762X0.762*%
%ADD24R,1.016X1.016*%
%ADD25R,1.016X1.016*%
%ADD26R,1.118X1.600*%
%ADD27R,1.524X3.429*%
%ADD28R,0.550X1.450*%
%ADD29R,0.550X1.450*%
%ADD30R,1.200X3.000*%
%ADD31R,3.500X1.750*%
%ADD32R,1.100X1.750*%
%ADD33R,1.100X1.750*%
%ADD34R,3.000X1.200*%
%ADD35O,1.900X0.600*%
%ADD36R,3.429X1.524*%
%ADD37R,0.900X0.700*%
%ADD38O,2.000X0.600*%
%ADD39C,0.889*%
%ADD40R,0.559X1.016*%
%ADD41R,0.610X0.762*%
%ADD42R,2.540X2.032*%
%ADD43R,0.914X0.914*%
%ADD44R,0.914X1.270*%
%ADD45O,0.610X2.032*%
%ADD46R,0.813X1.219*%
%ADD47R,1.000X2.000*%
%ADD48R,1.600X1.118*%
%ADD101C,2.200*%
%ADD102R,1.500X1.500*%
%ADD103C,1.500*%
%ADD104R,1.500X1.500*%
%ADD105C,1.500*%
%ADD106R,1.500X1.500*%
%ADD107C,3.000*%
%ADD108C,1.651*%
%ADD109R,1.651X1.651*%
%ADD110C,2.500*%
%ADD111P,1.624X8X22.5*%
%ADD112C,2.032*%
%ADD113C,2.000*%
%ADD114P,2.165X8X112.5*%
%ADD115C,1.270*%
%ADD116C,1.778*%
%ADD117R,1.778X1.778*%
%ADD118C,5.080*%
%ADD119C,1.400*%
D22*
X78867Y37973D02*
D03*
X77470D02*
D03*
X83185D02*
D03*
X84582D02*
D03*
X88392D02*
D03*
X86995D02*
D03*
X90805D02*
D03*
X92202D02*
D03*
X20896Y45535D02*
D03*
X22294D02*
D03*
X12573Y33147D02*
D03*
X13970D02*
D03*
X19685Y37719D02*
D03*
X21082D02*
D03*
X28702Y32512D02*
D03*
X30099D02*
D03*
X30480Y95758D02*
D03*
X31877D02*
D03*
X88011Y77089D02*
D03*
X86614D02*
D03*
X82804D02*
D03*
X84201D02*
D03*
X77089Y70358D02*
D03*
X75692D02*
D03*
X27559Y69469D02*
D03*
X26162D02*
D03*
X27559Y71374D02*
D03*
X26162D02*
D03*
X27559Y73406D02*
D03*
X26162D02*
D03*
X13843Y41910D02*
D03*
X12446D02*
D03*
X24130Y17907D02*
D03*
X25527D02*
D03*
X41021D02*
D03*
X42418D02*
D03*
X57658Y17780D02*
D03*
X59055D02*
D03*
X74422D02*
D03*
X75819D02*
D03*
X79121Y70358D02*
D03*
X80518D02*
D03*
X27559Y77343D02*
D03*
X26162D02*
D03*
X27559Y75438D02*
D03*
X26162D02*
D03*
D23*
X23876Y32512D02*
D03*
Y31115D02*
D03*
X16256Y34544D02*
D03*
Y33147D02*
D03*
X46863Y90170D02*
D03*
Y88773D02*
D03*
X55118Y62103D02*
D03*
Y60706D02*
D03*
X52705Y62103D02*
D03*
Y60706D02*
D03*
X6604Y70993D02*
D03*
Y72390D02*
D03*
X72390Y79248D02*
D03*
Y80645D02*
D03*
X69977Y79248D02*
D03*
Y80645D02*
D03*
X67564Y79248D02*
D03*
Y80645D02*
D03*
X74041Y33147D02*
D03*
Y34544D02*
D03*
X76454Y32004D02*
D03*
Y33401D02*
D03*
X78867Y32004D02*
D03*
Y33401D02*
D03*
X26289Y31115D02*
D03*
Y32512D02*
D03*
X35179Y95885D02*
D03*
Y94488D02*
D03*
X36068Y90551D02*
D03*
Y91948D02*
D03*
X29591Y87249D02*
D03*
Y88646D02*
D03*
X53594Y93853D02*
D03*
Y92456D02*
D03*
X60198Y85598D02*
D03*
Y86995D02*
D03*
X74803Y79248D02*
D03*
Y80645D02*
D03*
X62611Y84328D02*
D03*
Y82931D02*
D03*
X80899Y73025D02*
D03*
Y74422D02*
D03*
X17907Y44323D02*
D03*
Y45720D02*
D03*
X15875Y44323D02*
D03*
Y45720D02*
D03*
X8382D02*
D03*
Y44323D02*
D03*
X10160Y45720D02*
D03*
Y44323D02*
D03*
X11938Y45720D02*
D03*
Y44323D02*
D03*
X13843D02*
D03*
Y45720D02*
D03*
X81280Y33401D02*
D03*
Y32004D02*
D03*
D24*
X21336Y34544D02*
D03*
X20320Y32512D02*
D03*
X19304Y34544D02*
D03*
D25*
X13970Y35306D02*
D03*
X11938Y36322D02*
D03*
X13970Y37338D02*
D03*
D26*
X43472Y84709D02*
D03*
X46698D02*
D03*
D27*
X39116Y89408D02*
D03*
X43561D02*
D03*
D28*
X33716Y90864D02*
D03*
D29*
X32766Y90864D02*
D03*
X31816D02*
D03*
Y88714D02*
D03*
X32766D02*
D03*
X33716D02*
D03*
D30*
X32766Y85223D02*
D03*
Y79623D02*
D03*
X60198Y79508D02*
D03*
Y73908D02*
D03*
D31*
X51816Y80393D02*
D03*
D32*
X49516Y86993D02*
D03*
X51816D02*
D03*
D33*
X54116D02*
D03*
D34*
X44075Y95631D02*
D03*
X38475D02*
D03*
D35*
X44640Y69723D02*
D03*
Y68453D02*
D03*
Y67183D02*
D03*
Y65913D02*
D03*
X49340Y69723D02*
D03*
Y68453D02*
D03*
Y67183D02*
D03*
Y65913D02*
D03*
D36*
X55118Y70104D02*
D03*
Y65659D02*
D03*
D37*
X79375Y85598D02*
D03*
X80675D02*
D03*
X79345Y84328D02*
D03*
X80645D02*
D03*
X79375Y83058D02*
D03*
X80675D02*
D03*
D38*
X65477Y91948D02*
D03*
Y90678D02*
D03*
Y89408D02*
D03*
Y88138D02*
D03*
Y86868D02*
D03*
Y85598D02*
D03*
Y84328D02*
D03*
Y83058D02*
D03*
X74477Y91948D02*
D03*
Y90678D02*
D03*
Y89408D02*
D03*
Y88138D02*
D03*
Y86868D02*
D03*
Y85598D02*
D03*
Y84328D02*
D03*
Y83058D02*
D03*
D39*
X3175Y69977D02*
D03*
Y90233D02*
D03*
D40*
Y69469D02*
D03*
Y89726D02*
D03*
D41*
Y71120D02*
D03*
Y91377D02*
D03*
D42*
X38481Y84582D02*
D03*
Y80772D02*
D03*
D43*
X49657Y92075D02*
D03*
X51562D02*
D03*
D44*
X50610Y94107D02*
D03*
D45*
X84074Y74422D02*
D03*
X82804D02*
D03*
X85344D02*
D03*
X86614D02*
D03*
Y68834D02*
D03*
X85344D02*
D03*
X84074D02*
D03*
X82804D02*
D03*
D46*
X85026Y44183D02*
D03*
X85979Y41783D02*
D03*
X86932Y44183D02*
D03*
X77914D02*
D03*
X78867Y41783D02*
D03*
X79820Y44183D02*
D03*
X81420D02*
D03*
X82372Y41783D02*
D03*
X83325Y44183D02*
D03*
X88837D02*
D03*
X89789Y41783D02*
D03*
X90742Y44183D02*
D03*
X16383Y4826D02*
D03*
X15431Y7226D02*
D03*
X14478Y4826D02*
D03*
X16510Y9652D02*
D03*
X15557Y12052D02*
D03*
X14605Y9652D02*
D03*
D47*
X20362Y50546D02*
D03*
X18372D02*
D03*
X16362D02*
D03*
X14322D02*
D03*
X12352D02*
D03*
X10352D02*
D03*
X8382D02*
D03*
X8352Y66546D02*
D03*
X10332D02*
D03*
X12352D02*
D03*
X14332D02*
D03*
X16392D02*
D03*
X18412D02*
D03*
X20372D02*
D03*
X22412D02*
D03*
X22372Y50546D02*
D03*
D48*
X24511Y81953D02*
D03*
Y85179D02*
D03*
D101*
X24384Y92710D02*
D03*
X19384D02*
D03*
X47371Y6223D02*
D03*
X42371D02*
D03*
X57658D02*
D03*
X52658D02*
D03*
X6096Y24710D02*
D03*
Y29710D02*
D03*
Y14703D02*
D03*
Y19703D02*
D03*
Y9699D02*
D03*
Y4699D02*
D03*
X93726Y29562D02*
D03*
Y24562D02*
D03*
Y14558D02*
D03*
Y19558D02*
D03*
Y4550D02*
D03*
Y9550D02*
D03*
D102*
X96647Y66040D02*
D03*
X97536Y72898D02*
D03*
X3135Y75565D02*
D03*
D103*
X96647Y68580D02*
D03*
X94996Y75438D02*
D03*
X97536D02*
D03*
X94996Y72898D02*
D03*
X6096Y35179D02*
D03*
X8636D02*
D03*
X15113Y82169D02*
D03*
X20574Y2794D02*
D03*
X23114D02*
D03*
X25654D02*
D03*
X52451Y34798D02*
D03*
X49911D02*
D03*
X83340Y22500D02*
D03*
Y17500D02*
D03*
X66670Y22500D02*
D03*
Y17500D02*
D03*
X50000Y22500D02*
D03*
Y17500D02*
D03*
X33400Y22500D02*
D03*
Y17500D02*
D03*
X16660Y22500D02*
D03*
Y17500D02*
D03*
X3135Y85725D02*
D03*
Y83185D02*
D03*
Y80645D02*
D03*
Y78105D02*
D03*
D104*
X3556Y35179D02*
D03*
X28194Y2794D02*
D03*
X47371Y34798D02*
D03*
D105*
X16244Y28000D02*
D03*
D03*
X34600D02*
D03*
X51270D02*
D03*
X67940D02*
D03*
X84610D02*
D03*
D106*
X18784D02*
D03*
X13704D02*
D03*
X32060D02*
D03*
X48730D02*
D03*
X65400D02*
D03*
X82070D02*
D03*
D107*
X50038Y12827D02*
D03*
X92710Y91440D02*
D03*
X83820Y9144D02*
D03*
X10160Y91440D02*
D03*
X12700Y13843D02*
D03*
D108*
X39370Y72644D02*
D03*
Y65024D02*
D03*
Y75184D02*
D03*
Y70104D02*
D03*
Y67564D02*
D03*
X31750D02*
D03*
Y65024D02*
D03*
Y70104D02*
D03*
Y72644D02*
D03*
D109*
Y75184D02*
D03*
D110*
X43652Y79665D02*
D03*
X47244Y76073D02*
D03*
D111*
X20193Y82169D02*
D03*
D112*
X80162Y56286D02*
D03*
X60137Y56261D02*
D03*
D113*
X86515Y17854D02*
D03*
X80165D02*
D03*
X69845D02*
D03*
X63495D02*
D03*
X53175D02*
D03*
X46825D02*
D03*
X36575D02*
D03*
X30225D02*
D03*
X19835D02*
D03*
X13485D02*
D03*
D114*
X86515Y22299D02*
D03*
X80165D02*
D03*
X69845D02*
D03*
X63495D02*
D03*
X53175D02*
D03*
X46825D02*
D03*
X36575D02*
D03*
X30225D02*
D03*
X19835D02*
D03*
X13485D02*
D03*
D115*
X86106Y86273D02*
D03*
X83606Y88773D02*
D03*
X86106Y91273D02*
D03*
D116*
X83668Y96774D02*
D03*
X50648D02*
D03*
X53188Y96774D02*
D03*
X55728D02*
D03*
X58268Y96774D02*
D03*
X60808D02*
D03*
X63348D02*
D03*
X65888D02*
D03*
X68428D02*
D03*
X70968D02*
D03*
X73508D02*
D03*
X76048D02*
D03*
X78588D02*
D03*
X81128D02*
D03*
X86208Y96774D02*
D03*
D117*
X88748Y96774D02*
D03*
D118*
X3241Y41774D02*
D03*
X96241Y41774D02*
D03*
X3241Y96774D02*
D03*
X96241Y96774D02*
D03*
D119*
X79248Y68199D02*
D03*
X76708D02*
D03*
M02*
